<svg width="1112" height="57" viewBox="0 0 1112 57" fill="none" xmlns="http://www.w3.org/2000/svg">
<g clip-path="url(#clip0_138_690)">
<path d="M290.062 46.9452V47.04C290.038 47.0936 290.01 47.1452 289.978 47.1939L289.857 47.336L289.737 47.4426C289.611 47.5476 289.469 47.6316 289.315 47.6912H289.255C289.106 47.7499 288.947 47.782 288.786 47.786H283.97C283.842 47.7901 283.714 47.7668 283.595 47.7178C283.477 47.6687 283.371 47.595 283.284 47.5018L278.023 42.1497L274.568 47.3123L274.496 47.407L274.375 47.5491H274.315H274.255H274.171C274.074 47.6301 273.964 47.6942 273.846 47.7386L273.725 47.7978C273.574 47.8519 273.416 47.8838 273.256 47.8925H268.44C268.312 47.8966 268.184 47.8734 268.065 47.8243C267.947 47.7753 267.841 47.7016 267.754 47.6083L265.96 45.5836L259.652 47.7978C259.504 47.8631 259.344 47.8954 259.182 47.8925C258.963 47.8984 258.75 47.8269 258.58 47.6912L258.484 47.5965L255.474 44.21C255.354 44.6126 255.257 45.0152 255.125 45.3941L255.053 45.5599C255.032 45.6147 255.004 45.6665 254.968 45.7138L254.896 45.8085L254.764 45.9506L254.595 46.1046C254.502 46.1748 254.401 46.2344 254.294 46.2822L253.945 46.7084C253.78 46.7695 253.604 46.8015 253.428 46.8032H249.479C249.351 46.8096 249.224 46.7885 249.105 46.7415C248.987 46.6944 248.88 46.6226 248.793 46.5308L247.492 45.0626L246.926 46.9097C246.913 46.9726 246.889 47.0327 246.854 47.0874L246.782 47.2413L246.71 47.336L246.59 47.4781C246.539 47.5354 246.483 47.587 246.421 47.632C246.321 47.6982 246.216 47.7575 246.108 47.8096L245.951 47.8925C245.79 47.956 245.619 47.9921 245.446 47.9991H238.295C238.164 48.0049 238.034 47.9825 237.913 47.9334C237.793 47.8843 237.684 47.8097 237.596 47.7149L236.549 46.5308H232.757L232.673 46.815C232.658 46.8759 232.638 46.9353 232.612 46.9926C232.58 47.0414 232.551 47.0929 232.528 47.1465L232.456 47.2413L232.335 47.3834C232.285 47.4407 232.229 47.4923 232.167 47.5373C232.067 47.6034 231.962 47.6628 231.854 47.7149L231.697 47.7978C231.536 47.8613 231.365 47.8973 231.192 47.9044H226.725C226.597 47.9085 226.469 47.8852 226.351 47.8362C226.232 47.7871 226.126 47.7134 226.039 47.6202L224.655 46.069H220.525C220.398 46.0754 220.27 46.0544 220.152 46.0074C220.033 45.9603 219.926 45.8884 219.839 45.7967L214.217 39.8052C214.262 39.8499 214.315 39.8861 214.373 39.9118C214.269 39.851 214.182 39.7655 214.121 39.6631C214.041 39.511 214 39.3426 214 39.1717C214 39.0008 214.041 38.8324 214.121 38.6803C217.3 32.2563 219.906 25.5726 221.91 18.7048V18.6219L221.512 18.1719C221.512 18.1719 221.573 18.1719 221.609 18.2548C221.476 18.1345 221.382 17.9781 221.339 17.8053C221.296 17.6324 221.306 17.451 221.368 17.2839L222.68 12.9501C222.79 12.6231 222.996 12.3356 223.273 12.1247C223.549 11.9137 223.884 11.7888 224.233 11.766H229.049L229.831 9.18471C229.942 8.8585 230.149 8.57195 230.425 8.36121C230.702 8.15046 231.035 8.02498 231.384 8.00063H235.887C236.021 7.9955 236.154 8.02183 236.275 8.07743C236.397 8.13303 236.503 8.2163 236.585 8.32034L238.126 10.061L238.247 9.74124C238.355 9.41155 238.563 9.12199 238.842 8.91065C239.122 8.6993 239.46 8.57606 239.812 8.55715H255.715C255.848 8.5548 255.981 8.58237 256.102 8.63777C256.222 8.69316 256.329 8.77492 256.413 8.87686L261.229 14.3355L261.145 9.78861C261.151 9.58831 261.2 9.39147 261.286 9.21023C261.373 9.02899 261.497 8.86717 261.65 8.73476C261.941 8.43742 262.338 8.2633 262.758 8.24929H267.573C267.728 8.24462 267.88 8.28058 268.016 8.35344C268.151 8.42629 268.264 8.5334 268.344 8.66371C268.323 8.61615 268.294 8.57218 268.259 8.53346L271.871 12.5712L272.485 10.5464C272.592 10.2177 272.797 9.92848 273.075 9.71706C273.352 9.50565 273.688 9.38196 274.038 9.36234H291.615C291.749 9.35674 291.883 9.38158 292.007 9.43495C292.13 9.48833 292.239 9.56881 292.325 9.67019L297.815 15.863L297.887 15.9459C297.946 16.035 297.983 16.1363 297.995 16.2419C297.995 16.2419 297.995 16.2419 297.995 16.3011C298.001 16.3878 298.001 16.4748 297.995 16.5616C298 16.6286 298 16.6959 297.995 16.7629L292.47 34.8676L292.397 35.0452L292.313 35.1991C292.313 35.1991 292.313 35.2583 292.241 35.2938L292.12 35.4359L291.94 35.5899C291.844 35.6609 291.735 35.7083 291.639 35.7675C291.543 35.8267 291.531 35.8385 291.482 35.8504C291.319 35.9207 291.143 35.957 290.965 35.9569H288.557L289.508 37.0226V37.1055C289.569 37.2151 289.606 37.3361 289.616 37.4607L290.146 46.3887V46.7084C290.146 46.7084 290.146 46.7084 290.146 46.7913C290.146 46.8742 290.062 46.9097 290.062 46.9452Z" fill="black"/>
<path d="M215.3 38.9051C218.515 32.4074 221.153 25.6488 223.186 18.7046H226.93C224.951 25.632 222.399 32.3881 219.297 38.9051H215.3ZM239.498 9.71739L238.186 14.0038H254.066L255.378 9.71739H239.498ZM227.315 39.3196H231.794C234.602 34.6665 236.83 29.6968 238.427 24.5185H234.442C232.788 29.7435 230.379 34.7081 227.291 39.2604L227.315 39.3196ZM235.128 18.2902L233.804 22.6476H241.401L237.199 36.4422H234.454L233.13 40.7641H240.281L245.795 22.6476H253.175L254.511 18.2902H235.128ZM231.757 21.7359L233.106 17.3192H235.887L237.211 12.9855H234.454L235.658 9.23193H231.071L229.867 12.9855H223.908L222.584 17.3192H228.603L221.5 40.7878H225.967L230.156 27.0287L231.733 28.5562L233.335 23.2989L231.757 21.7359ZM246.445 24.6606C246.56 29.6751 245.861 34.6756 244.374 39.4735H248.335C249.83 34.6692 250.641 29.684 250.743 24.6606H246.445ZM267.308 9.3977H262.433L262.565 16.964H267.453L267.308 9.3977ZM257.111 19.3322L255.703 23.9738H259.062L253.945 40.7878L262.577 37.7566L264.154 32.5584L260.711 33.7425L265.105 19.3203L257.111 19.3322ZM268.055 40.7641L274.014 31.848H269.198L263.179 40.7641H268.055ZM273.761 10.5226L268.211 28.7101H285.788L291.326 10.5226H273.761ZM282.574 24.1751H274.207L276.976 15.0458H285.403L282.622 24.1751M278.023 31.8124L278.553 40.7286H283.368L282.826 31.8124H278.023Z" fill="#FAFAFA"/>
</g>
<g clip-path="url(#clip1_138_690)">
<path d="M393.5 12H415.5L396.5 44H374.5L393.5 12Z" fill="#FF7A00"/>
<path d="M373.5 12H389.5L370.5 44H354.5L373.5 12Z" fill="#FF9736"/>
<path d="M357.5 12H369.5L350.5 44H338.5L357.5 12Z" fill="#FFBC7D"/>
</g>
<g clip-path="url(#clip2_138_690)">
<path d="M507.582 18.2837H504V34.447H513.916V31.2799H507.582V18.2837Z" fill="#243A5A"/>
<path d="M514.259 28.9646C514.259 32.4157 516.574 34.7091 520.069 34.7091C523.541 34.7091 525.857 32.4157 525.857 28.9646C525.857 25.5135 523.541 23.1982 520.069 23.1982C516.574 23.1982 514.259 25.5135 514.259 28.9646ZM517.644 28.9427C517.644 27.3046 518.605 26.2125 520.069 26.2125C521.51 26.2125 522.471 27.3046 522.471 28.9427C522.471 30.6028 521.51 31.6949 520.069 31.6949C518.605 31.6949 517.644 30.6028 517.644 28.9427Z" fill="#243A5A"/>
<path d="M526.398 28.7901C526.398 32.0882 528.538 34.3161 531.574 34.3161C533.038 34.3161 534.305 33.7919 534.938 32.9401V34.4472C534.938 35.9543 533.999 36.959 532.339 36.959C530.853 36.959 529.827 36.2601 529.761 35.0151H526.354C526.66 38.0075 528.975 40.0169 532.142 40.0169C535.877 40.0169 538.236 37.5925 538.236 33.7482V23.5261H535.2L535.025 24.64C534.414 23.7445 533.125 23.1548 531.64 23.1548C528.582 23.1548 526.398 25.4482 526.398 28.7901ZM529.805 28.7027C529.805 27.13 530.853 26.0816 532.186 26.0816C533.737 26.0816 534.872 27.1082 534.872 28.7027C534.872 30.2972 533.759 31.3893 532.208 31.3893C530.875 31.3893 529.805 30.2972 529.805 28.7027Z" fill="#243A5A"/>
<path d="M539.217 28.9646C539.217 32.4157 541.532 34.7091 545.027 34.7091C548.5 34.7091 550.815 32.4157 550.815 28.9646C550.815 25.5135 548.5 23.1982 545.027 23.1982C541.532 23.1982 539.217 25.5135 539.217 28.9646ZM542.602 28.9427C542.602 27.3046 543.563 26.2125 545.027 26.2125C546.468 26.2125 547.429 27.3046 547.429 28.9427C547.429 30.6028 546.468 31.6949 545.027 31.6949C543.563 31.6949 542.602 30.6028 542.602 28.9427Z" fill="#243A5A"/>
<path d="M553.715 21.8224C554.763 21.8224 555.615 20.9705 555.615 19.9003C555.615 18.83 554.763 18 553.715 18C552.645 18 551.793 18.83 551.793 19.9003C551.793 20.9705 552.645 21.8224 553.715 21.8224ZM552.011 34.4472H555.397V23.5261H552.011V34.4472Z" fill="#243A5A"/>
<path d="M557.368 39.6895H560.688V33.3553C561.321 34.1853 562.763 34.7532 564.27 34.7532C567.524 34.7532 569.49 32.2632 569.403 28.8121C569.315 25.2955 567.284 23.1768 564.248 23.1768C562.697 23.1768 561.234 23.8539 560.622 24.8587L560.447 23.5263H557.368V39.6895ZM560.753 28.9868C560.753 27.3487 561.845 26.2566 563.418 26.2566C565.012 26.2566 566.017 27.3705 566.017 28.9868C566.017 30.6032 565.012 31.7171 563.418 31.7171C561.845 31.7171 560.753 30.625 560.753 28.9868Z" fill="#243A5A"/>
<path d="M569.761 30.9963C569.848 33.2024 571.596 34.7313 574.348 34.7313C576.991 34.7313 578.826 33.3334 578.826 31.0837C578.826 29.4674 577.865 28.3971 576.073 27.9602L574.13 27.4797C573.431 27.305 572.994 27.1302 572.994 26.5623C572.994 25.9944 573.452 25.6231 574.13 25.6231C574.894 25.6231 575.396 26.1255 575.375 26.8681H578.411C578.323 24.5965 576.598 23.1768 574.195 23.1768C571.771 23.1768 569.958 24.6184 569.958 26.8026C569.958 28.266 570.766 29.4674 572.928 30.0353L574.85 30.5376C575.418 30.6905 575.658 30.9526 575.658 31.3239C575.658 31.87 575.156 32.2195 574.304 32.2195C573.321 32.2195 572.797 31.7608 572.797 30.9963H569.761Z" fill="#243A5A"/>
<path d="M583.974 34.7309C585.307 34.7309 586.639 34.1193 587.316 33.2238L587.535 34.447H590.702V23.5259H587.338V29.2049C587.338 30.843 586.858 31.7385 585.307 31.7385C584.105 31.7385 583.319 31.1925 583.319 29.1612V23.5259H579.955V30.3843C579.955 32.9836 581.397 34.7309 583.974 34.7309Z" fill="#243A5A"/>
<path d="M596.036 34.4472V28.4843C596.036 26.6495 597.019 26.1253 597.98 26.1253C599.05 26.1253 599.749 26.7806 599.749 28.1348V34.4472H603.069V28.4843C603.069 26.6277 604.03 26.1035 604.991 26.1035C606.061 26.1035 606.782 26.7587 606.782 28.1348V34.4472H610.059V27.3048C610.059 24.8148 608.748 23.1548 605.93 23.1548C604.358 23.1548 603.069 23.9192 602.501 25.0987C601.846 23.9192 600.71 23.1548 598.897 23.1548C597.696 23.1548 596.582 23.7008 595.927 24.5745L595.796 23.5261H592.65V34.4472H596.036Z" fill="#243A5A"/>
<path d="M456 28C456 18.5719 456 13.8579 458.929 10.9289C461.858 8 466.572 8 476 8C485.428 8 490.142 8 493.071 10.9289C496 13.8579 496 18.5719 496 28C496 37.4281 496 42.1421 493.071 45.0711C490.142 48 485.428 48 476 48C466.572 48 461.858 48 458.929 45.0711C456 42.1421 456 37.4281 456 28Z" fill="#243A5A"/>
<path d="M480 34C480.552 34 481.01 34.4521 480.9 34.9934C480.706 35.9494 480.235 36.8355 479.535 37.5355C478.598 38.4732 477.326 39 476 39C474.674 39 473.402 38.4732 472.464 37.5355C471.764 36.8355 471.293 35.9494 471.1 34.9934C470.99 34.4521 471.448 34 472 34H480Z" fill="#2DF8BB"/>
<path d="M482.102 25.7765C481.569 25.9194 481.242 26.4775 481.513 26.959C481.797 27.4658 482.191 27.9081 482.67 28.2514C483.422 28.7904 484.338 29.052 485.262 28.9914C486.185 28.9309 487.059 28.5521 487.734 27.9195C488.41 27.2869 488.845 26.4396 488.966 25.5221C489.087 24.6046 488.886 23.6736 488.397 22.8877C487.908 22.1019 487.162 21.5098 486.286 21.2123C485.409 20.9148 484.457 20.9304 483.591 21.2564C483.039 21.464 482.545 21.7893 482.138 22.2051C481.753 22.6002 481.924 23.2239 482.402 23.5L482.909 23.7929C483.681 24.2384 483.529 25.3943 482.668 25.6249L482.102 25.7765Z" fill="#2DF8BB"/>
<path d="M469.898 25.7765C470.431 25.9194 470.758 26.4775 470.487 26.959C470.203 27.4658 469.809 27.9081 469.33 28.2514C468.578 28.7904 467.662 29.052 466.738 28.9914C465.815 28.9309 464.941 28.5521 464.266 27.9195C463.59 27.2869 463.155 26.4396 463.034 25.5221C462.913 24.6046 463.115 23.6736 463.603 22.8877C464.092 22.1019 464.838 21.5098 465.714 21.2123C466.591 20.9148 467.543 20.9304 468.409 21.2564C468.961 21.464 469.455 21.7893 469.862 22.2051C470.248 22.6002 470.076 23.2239 469.598 23.5L469.091 23.7929C468.319 24.2384 468.471 25.3943 469.332 25.6249L469.898 25.7765Z" fill="#2DF8BB"/>
</g>
<path d="M992.57 28.9045C992.57 26.8236 993.813 25.374 995.711 25.374C997.61 25.374 998.852 26.8236 998.852 28.9045C998.852 30.9621 997.61 32.435 995.711 32.435C993.813 32.435 992.57 30.9621 992.57 28.9045Z" fill="#152C4F"/>
<path d="M1008.63 25.2808C1006.82 25.2808 1005.6 26.6836 1005.6 28.6009C1005.6 30.5415 1006.85 31.9911 1008.63 31.9911C1010.6 31.9911 1011.91 30.5181 1011.91 28.6009C1011.91 26.707 1010.6 25.2808 1008.63 25.2808Z" fill="#152C4F"/>
<path d="M1019.09 28.9045C1019.09 26.8236 1020.33 25.374 1022.23 25.374C1024.13 25.374 1025.37 26.8236 1025.37 28.9045C1025.37 30.9621 1024.13 32.435 1022.23 32.435C1020.33 32.435 1019.09 30.9621 1019.09 28.9045Z" fill="#152C4F"/>
<path d="M1038.19 28.928C1038.19 26.8471 1039.46 25.3975 1041.45 25.3975C1043.44 25.3975 1044.64 26.8705 1044.64 28.928C1044.64 30.9855 1043.44 32.4351 1041.45 32.4351C1039.46 32.4351 1038.19 31.0089 1038.19 28.928Z" fill="#152C4F"/>
<path fill-rule="evenodd" clip-rule="evenodd" d="M1037 53.3655C1076.83 53.3655 1109.11 42.065 1109.11 28.1251C1109.11 14.1852 1076.83 2.88477 1037 2.88477C997.172 2.88477 964.885 14.1852 964.885 28.1251C964.885 42.065 997.172 53.3655 1037 53.3655ZM987.937 34.7032V17.3078H985.077V34.7032H987.937ZM989.687 28.9047C989.687 32.4586 992.078 34.9838 995.711 34.9838C999.345 34.9838 1001.74 32.4586 1001.74 28.9047C1001.74 25.3508 999.345 22.8257 995.711 22.8257C992.078 22.8257 989.687 25.3508 989.687 28.9047ZM1008.14 34.4694C1004.88 34.4694 1002.7 32.0378 1002.7 28.6709C1002.7 25.2807 1004.92 22.7789 1008.23 22.7789C1009.94 22.7789 1011.39 23.5038 1012.1 24.7196L1012.26 23.153H1014.79V34.1187C1014.79 37.9298 1012.4 40.3847 1008.65 40.3847C1005.46 40.3847 1003.14 38.4208 1002.77 35.4046H1005.65C1005.81 36.9244 1007.03 37.7895 1008.82 37.7895C1010.81 37.7895 1012 36.5269 1012 34.633V32.6691C1011.28 33.7913 1009.82 34.4694 1008.14 34.4694ZM1016.21 28.9047C1016.21 32.4586 1018.6 34.9838 1022.23 34.9838C1025.87 34.9838 1028.26 32.4586 1028.26 28.9047C1028.26 25.3508 1025.87 22.8257 1022.23 22.8257C1018.6 22.8257 1016.21 25.3508 1016.21 28.9047ZM1033.06 19.0848C1033.06 20.0434 1032.29 20.7916 1031.35 20.7916C1030.39 20.7916 1029.66 20.0434 1029.66 19.0848C1029.66 18.1495 1030.39 17.4013 1031.35 17.4013C1032.29 17.4013 1033.06 18.1495 1033.06 19.0848ZM1032.78 23.153V34.7032H1029.92V23.153H1032.78ZM1035.29 40.0574H1038.08V33.1133C1038.8 34.3057 1040.37 35.0071 1042.11 35.0071C1045.53 35.0071 1047.57 32.3885 1047.52 28.7878C1047.45 25.1638 1045.37 22.8023 1042.08 22.8023C1040.33 22.8023 1038.73 23.5739 1038.03 24.9066L1037.86 23.153H1035.29V40.0574ZM1052.89 35.0071C1050.12 35.0071 1048.34 33.5341 1048.25 31.2428H1050.85C1050.85 32.2482 1051.58 32.8327 1052.84 32.8327C1053.9 32.8327 1054.77 32.4119 1054.77 31.5C1054.77 30.8453 1054.3 30.4946 1053.55 30.2842L1051.53 29.7698C1049.3 29.1853 1048.44 27.9461 1048.44 26.4497C1048.44 24.2519 1050.29 22.8023 1052.77 22.8023C1055.28 22.8023 1056.99 24.2519 1057.09 26.5433H1054.48C1054.48 25.5379 1053.78 24.93 1052.7 24.93C1051.67 24.93 1051.04 25.4911 1051.04 26.2861C1051.04 27.0343 1051.62 27.3382 1052.49 27.572L1054.53 28.063C1056.43 28.5306 1057.46 29.6529 1057.46 31.313C1057.46 33.5575 1055.61 35.0071 1052.89 35.0071ZM1063.39 35.0071C1064.96 35.0071 1066.46 34.2823 1067.14 33.2068L1067.33 34.7032H1070V23.153H1067.14V29.2087C1067.14 31.2896 1066.35 32.4586 1064.47 32.4586C1063.02 32.4586 1062.01 31.7572 1062.01 29.3724V23.153H1059.15V30.3777C1059.15 33.1367 1060.65 35.0071 1063.39 35.0071ZM1075.39 28.063V34.7032H1072.53V23.153H1075.15L1075.29 24.4624C1075.97 23.4336 1077.19 22.8023 1078.55 22.8023C1080.47 22.8023 1081.74 23.644 1082.37 25.0001C1082.93 23.644 1084.32 22.8023 1086.08 22.8023C1088.89 22.8023 1090.36 24.4858 1090.36 27.1512V34.7032H1087.6V27.8058C1087.6 26.1692 1086.71 25.3041 1085.33 25.3041C1083.97 25.3041 1082.89 26.1926 1082.89 28.0864V34.7032H1080.1V27.8058C1080.1 26.1692 1079.21 25.3041 1077.85 25.3041C1076.49 25.3041 1075.39 26.1926 1075.39 28.063Z" fill="#152C4F"/>
<path d="M715.932 18.4285C713.188 15.6853 709.932 13.5092 706.348 12.0246C702.763 10.54 698.922 9.77588 695.042 9.77588C691.163 9.77588 687.322 10.54 683.737 12.0246C680.153 13.5092 676.897 15.6853 674.153 18.4285L695.042 39.3175L715.932 18.4285Z" fill="#FFD200"/>
<path d="M695.069 39.3476C697.812 42.0908 701.068 44.2668 704.653 45.7514C708.237 47.236 712.078 48.0001 715.958 48.0001C719.837 48.0001 723.679 47.236 727.263 45.7514C730.847 44.2668 734.104 42.0908 736.847 39.3476L715.958 18.4585L695.069 39.3476Z" fill="#06E07F"/>
<path d="M695.017 39.3427C692.274 42.0859 689.017 44.2619 685.433 45.7465C681.849 47.2311 678.007 47.9952 674.128 47.9952C670.248 47.9952 666.407 47.2311 662.823 45.7465C659.239 44.2619 655.982 42.0859 653.239 39.3427L674.128 18.4536L695.017 39.3427Z" fill="#E3073C"/>
<path d="M715.983 18.4328C718.726 15.6896 721.983 13.5136 725.567 12.029C729.151 10.5444 732.993 9.78027 736.872 9.78027C740.752 9.78027 744.593 10.5444 748.177 12.029C751.761 13.5136 755.018 15.6896 757.761 18.4328L736.872 39.3219L715.983 18.4328Z" fill="#1F84EF"/>
<g clip-path="url(#clip3_138_690)">
<path d="M888.861 45.225C889.62 45.225 890.069 44.65 890.069 43.751C890.069 42.819 889.587 42.277 888.877 42.277C888.471 42.277 888.189 42.457 887.978 42.743H887.968V41.27H887.528V45.143H887.968V44.775H887.978C888.206 45.089 888.482 45.225 888.861 45.225ZM888.829 44.856C888.233 44.856 887.94 44.385 887.94 43.756C887.94 43.15 888.222 42.651 888.834 42.651C889.365 42.651 889.62 43.128 889.62 43.756C889.62 44.39 889.365 44.856 888.829 44.856ZM890.812 46.07C891.153 46.07 891.37 45.95 891.597 45.37L892.795 42.342H892.329L891.689 44.087C891.603 44.32 891.505 44.634 891.505 44.634H891.495C891.495 44.634 891.391 44.32 891.305 44.087L890.644 42.342H890.167L891.261 45.062L891.153 45.338C891.045 45.609 890.92 45.68 890.736 45.68C890.633 45.6852 890.531 45.6646 890.438 45.62H890.416V46.01C890.536 46.059 890.644 46.07 890.812 46.07ZM893.918 45.143H894.655V41.27H893.918V45.143ZM896.457 45.225C897.318 45.225 897.909 44.585 897.909 43.756C897.909 42.927 897.319 42.288 896.457 42.288C895.596 42.288 895.005 42.928 895.005 43.756C895.005 44.586 895.595 45.225 896.457 45.225ZM896.457 44.661C896.002 44.661 895.753 44.298 895.753 43.756C895.753 43.215 896.002 42.846 896.457 42.846C896.907 42.846 897.161 43.215 897.161 43.756C897.161 44.298 896.907 44.661 896.457 44.661ZM899.476 46.091C899.888 46.091 900.245 45.994 900.478 45.777C900.684 45.587 900.809 45.322 900.809 44.932V42.364H900.099V42.657H900.088C899.92 42.424 899.666 42.288 899.318 42.288C898.615 42.288 898.116 42.819 898.116 43.648C898.116 44.488 898.723 44.975 899.341 44.975C899.693 44.975 899.904 44.835 900.066 44.65H900.083V44.954C900.083 45.333 899.883 45.534 899.465 45.534C899.124 45.534 898.967 45.398 898.907 45.224H898.176C898.251 45.766 898.717 46.091 899.476 46.091ZM899.466 44.385C899.086 44.385 898.836 44.109 898.836 43.637C898.836 43.171 899.086 42.879 899.46 42.879C899.904 42.879 900.121 43.225 900.121 43.632C900.121 44.044 899.931 44.385 899.465 44.385H899.466ZM902.6 45.225C903.461 45.225 904.052 44.585 904.052 43.756C904.052 42.927 903.461 42.288 902.6 42.288C901.738 42.288 901.148 42.928 901.148 43.756C901.148 44.586 901.738 45.225 902.6 45.225ZM902.6 44.661C902.145 44.661 901.895 44.298 901.895 43.756C901.895 43.215 902.145 42.846 902.6 42.846C903.049 42.846 903.304 43.215 903.304 43.756C903.304 44.298 903.049 44.661 902.6 44.661ZM904.394 45.143H905.131V42.364H904.394V45.143ZM904.394 41.931H905.131V41.27H904.394V41.931ZM905.606 46.053H906.343V44.83H906.353C906.511 45.069 906.765 45.226 907.155 45.226C907.87 45.226 908.358 44.656 908.358 43.757C908.358 42.89 907.887 42.289 907.15 42.289C906.989 42.2864 906.831 42.3237 906.688 42.3975C906.545 42.4713 906.423 42.5794 906.332 42.712H906.316V42.365H905.606V46.055V46.053ZM906.998 44.613C906.559 44.613 906.326 44.282 906.326 43.778C906.326 43.28 906.511 42.884 906.971 42.884C907.426 42.884 907.61 43.252 907.61 43.778C907.61 44.304 907.372 44.613 906.998 44.613ZM909.828 45.225C910.521 45.225 910.998 44.889 910.998 44.331C910.998 43.681 910.483 43.551 910.017 43.453C909.622 43.372 909.254 43.35 909.254 43.112C909.254 42.912 909.443 42.802 909.73 42.802C910.045 42.802 910.234 42.912 910.267 43.209H910.933C910.879 42.651 910.473 42.289 909.741 42.289C909.107 42.289 908.609 42.575 908.609 43.177C908.609 43.783 909.096 43.919 909.595 44.017C909.974 44.092 910.326 44.119 910.326 44.385C910.326 44.58 910.142 44.705 909.817 44.705C909.487 44.705 909.259 44.564 909.21 44.244H908.528C908.571 44.834 909.021 45.225 909.828 45.225ZM913.796 45.143V42.364H913.059V43.968C913.059 44.336 912.847 44.596 912.501 44.596C912.187 44.596 912.04 44.417 912.04 44.092V42.364H911.309V44.217C911.309 44.824 911.656 45.219 912.273 45.219C912.663 45.219 912.88 45.073 913.07 44.819H913.086V45.143H913.796ZM914.272 45.143H915.009V43.53C915.009 43.161 915.209 42.923 915.507 42.923C915.778 42.923 915.935 43.086 915.935 43.4V45.144H916.672V43.53C916.672 43.161 916.862 42.923 917.171 42.923C917.442 42.923 917.599 43.086 917.599 43.4V45.144H918.336V43.275C918.336 42.668 918.005 42.289 917.42 42.289C917.068 42.289 916.775 42.473 916.586 42.777H916.575C916.508 42.6294 916.4 42.5046 916.263 42.4178C916.126 42.3311 915.967 42.2863 915.805 42.289C915.643 42.2849 915.482 42.3245 915.34 42.4037C915.198 42.4828 915.08 42.5987 914.998 42.739H914.982V42.365H914.272V45.145V45.143Z" fill="#E5708C"/>
<path d="M918.481 10.1492C918.481 8.96618 919.44 8.00618 920.623 8.00618H922.052C922.62 8.00618 923.166 8.23196 923.567 8.63385C923.969 9.03574 924.195 9.58082 924.195 10.1492C924.195 10.7175 923.969 11.2626 923.567 11.6645C923.166 12.0664 922.62 12.2922 922.052 12.2922H920.623C920.342 12.2922 920.063 12.2367 919.803 12.129C919.543 12.0213 919.307 11.8635 919.108 11.6645C918.909 11.4654 918.751 11.2292 918.644 10.9692C918.536 10.7092 918.481 10.4306 918.481 10.1492ZM858.49 22.2902C858.49 30.1782 852.096 36.5732 844.207 36.5732C836.319 36.5732 829.924 30.1782 829.924 22.2902C829.924 14.4002 836.319 8.00718 844.207 8.00718C852.096 8.00718 858.49 14.4002 858.49 22.2902ZM827.138 22.2192C827.928 22.2192 828.574 22.8592 828.495 23.6452C828.225 26.335 827.197 28.893 825.531 31.0218C823.865 33.1507 821.629 34.763 819.083 35.6713C816.537 36.5797 813.785 36.7468 811.148 36.1533C808.51 35.5597 806.095 34.2299 804.184 32.3184C802.272 30.4068 800.943 27.9921 800.349 25.3547C799.755 22.7173 799.923 19.9656 800.831 17.4195C801.739 14.8733 803.352 12.6372 805.48 10.9711C807.609 9.30494 810.167 8.27716 812.857 8.00718C813.642 7.92718 814.283 8.57518 814.283 9.36318V20.7902C814.283 21.5802 814.923 22.2192 815.712 22.2192H827.138ZM878.487 39.4302C879.624 39.4302 880.713 39.8816 881.517 40.6852C882.321 41.4888 882.772 42.5787 882.772 43.7152C882.772 44.8516 882.321 45.9415 881.517 46.7451C880.713 47.5487 879.624 48.0002 878.487 48.0002H871.346C870.21 48.0002 869.12 47.5487 868.316 46.7451C867.513 45.9415 867.061 44.8516 867.061 43.7152C867.061 42.5787 867.513 41.4888 868.316 40.6852C869.12 39.8816 870.21 39.4302 871.346 39.4302H878.487ZM874.202 36.5732C882.091 36.5732 888.486 30.1782 888.486 22.2902C888.489 19.8671 887.874 17.4834 886.697 15.3652L889.057 13.0052C889.329 12.7332 889.545 12.4104 889.692 12.0551C889.839 11.6998 889.914 11.319 889.914 10.9345C889.914 10.5499 889.838 10.1692 889.691 9.81398C889.544 9.45876 889.328 9.13602 889.056 8.86418C888.784 8.59235 888.461 8.37674 888.106 8.22967C887.751 8.08261 887.37 8.00696 886.985 8.00705C886.601 8.00715 886.22 8.08298 885.865 8.23021C885.51 8.37745 885.187 8.59321 884.915 8.86518L882.855 10.9252C880.37 9.02709 877.328 8.00115 874.201 8.00618C866.314 8.00718 859.92 14.4002 859.92 22.2902C859.92 30.1782 866.314 36.5732 874.202 36.5732ZM918.481 22.2902C918.481 30.1782 912.086 36.5732 904.197 36.5732C896.309 36.5732 889.914 30.1782 889.914 22.2902C889.914 14.4002 896.309 8.00718 904.197 8.00718C912.086 8.00718 918.481 14.4012 918.481 22.2902Z" fill="url(#paint0_linear_138_690)"/>
</g>
<g clip-path="url(#clip4_138_690)">
<path d="M50.203 29.282C50.2376 28.6158 50.2376 27.9482 50.203 27.282H12.254C12.246 27.448 12.239 27.615 12.235 27.782H4.285L4.281 28.032H0V28.532H4.28L4.286 28.782H12.235C12.239 28.95 12.245 29.116 12.255 29.282H23.15C23.1086 28.9503 23.0879 28.6163 23.088 28.282H39.088C39.088 28.621 39.068 28.955 39.026 29.282H50.203ZM50.124 26.282H38.837C38.7492 25.9417 38.639 25.6077 38.507 25.282H23.672C23.541 25.606 23.43 25.939 23.342 26.282H12.332C12.35 26.115 12.37 25.948 12.392 25.782H4.442L4.476 25.538H0V25.038H4.555L4.601 24.782H12.551C12.581 24.615 12.615 24.448 12.651 24.282H49.807C49.947 24.937 50.054 25.604 50.124 26.282ZM49.564 23.282H37.334C37.0456 22.922 36.7267 22.5874 36.381 22.282H25.797C25.452 22.588 25.132 22.922 24.844 23.282H12.894C12.939 23.115 12.987 22.948 13.037 22.782H5.087L5.175 22.501H0V22H5.342L5.42 21.781H13.37C13.43 21.613 13.494 21.447 13.56 21.281H48.897C49.155 21.931 49.378 22.6 49.564 23.282ZM48.467 20.282H13.99C14.068 20.114 14.148 19.948 14.231 19.782H6.282L6.423 19.506H0V19.006H6.694L6.821 18.782H14.771C14.868 18.614 14.968 18.447 15.07 18.282H47.387C47.785 18.924 48.147 19.592 48.467 20.282ZM12.332 30.282H50.125C50.054 30.96 49.947 31.628 49.807 32.282H38.019C38.204 31.962 38.368 31.628 38.508 31.282H23.67C23.81 31.628 23.973 31.962 24.158 32.282H12.65C12.6144 32.1158 12.5811 31.9491 12.55 31.782H4.601C4.58471 31.6941 4.56905 31.6061 4.554 31.518H0V31.018H4.475C4.46352 30.9394 4.45252 30.8607 4.442 30.782H12.392C12.3698 30.6156 12.3498 30.4489 12.332 30.282ZM12.893 33.282H49.563C49.378 33.965 49.155 34.632 48.897 35.282H34.965C35.4717 35.0007 35.9465 34.6655 36.381 34.282H25.797C26.2315 34.6655 26.7063 35.0007 27.213 35.282H13.56C13.4944 35.1162 13.431 34.9495 13.37 34.782H5.42L5.334 34.541H0V34.041H5.168C5.14072 33.9549 5.11406 33.8685 5.088 33.782H13.037C12.987 33.616 12.939 33.45 12.893 33.282ZM13.99 36.282H48.467C48.1473 36.9697 47.7867 37.6375 47.387 38.282H15.07C14.9674 38.1169 14.8674 37.9502 14.77 37.782H6.821C6.771 37.696 6.722 37.61 6.674 37.523H0V37.023H6.405L6.282 36.783H14.232C14.1489 36.6175 14.0682 36.4508 13.99 36.283V36.282ZM16.92 40.782C17.067 40.952 17.218 41.118 17.372 41.282H45.085C45.6752 40.6531 46.2221 39.9849 46.722 39.282H15.735C15.855 39.451 15.977 39.618 16.103 39.782H8.153L8.351 40.037H0V40.537H8.76C8.829 40.62 8.899 40.701 8.97 40.782H16.92ZM20.237 43.782C20.48 43.955 20.727 44.122 20.977 44.282H41.48C42.4004 43.6909 43.2683 43.0218 44.074 42.282H18.384C18.569 42.452 18.758 42.619 18.95 42.782H11C11.108 42.874 11.217 42.964 11.327 43.052H0V43.552H11.972C12.076 43.63 12.182 43.707 12.288 43.782H20.238H20.237ZM27.254 46.866C28.536 47.139 29.865 47.282 31.228 47.282C34.282 47.282 37.167 46.562 39.723 45.282H22.733C23.089 45.46 23.45 45.627 23.817 45.782H15.867C16.009 45.842 16.152 45.901 16.295 45.958H0V46.458H17.725C19.482 46.994 21.347 47.282 23.279 47.282C24.642 47.282 25.972 47.139 27.254 46.866ZM15.735 17.282H46.722C46.2221 16.5791 45.6752 15.9109 45.085 15.282H17.372C17.218 15.446 17.067 15.612 16.919 15.782H8.97L8.794 15.988H0V16.488H8.382C8.305 16.585 8.229 16.683 8.154 16.782H16.103C15.977 16.947 15.855 17.114 15.735 17.282ZM18.383 14.282H44.073C43.2676 13.5422 42.4001 12.8731 41.48 12.282H20.977C20.727 12.443 20.48 12.61 20.237 12.782H12.288C12.178 12.861 12.068 12.94 11.96 13.021H0V13.521H11.316C11.21 13.607 11.105 13.694 11.001 13.782H18.95C18.758 13.945 18.569 14.112 18.383 14.282ZM22.734 11.282H39.724C37.0869 9.96244 34.1778 9.27755 31.229 9.282C29.865 9.282 28.536 9.426 27.254 9.699C25.9473 9.4212 24.6149 9.28143 23.279 9.282C21.145 9.282 19.094 9.634 17.179 10.282H0V10.782H23.817C23.4508 10.9372 23.0896 11.104 22.734 11.282ZM111.248 9C111.905 9 112.421 9.164 112.796 9.492C113.187 9.805 113.382 10.242 113.382 10.806C113.382 11.369 113.187 11.814 112.796 12.142C112.421 12.455 111.905 12.612 111.248 12.612C110.592 12.612 110.068 12.455 109.677 12.142C109.302 11.814 109.114 11.369 109.114 10.806C109.114 10.243 109.302 9.806 109.677 9.492C110.068 9.164 110.592 9 111.248 9ZM113.077 14.792V24.993C113.077 25.65 113.187 26.096 113.406 26.33C113.64 26.565 114.031 26.682 114.578 26.682V27.174C114.141 27.1526 113.703 27.137 113.265 27.127C112.664 27.0955 112.061 27.0799 111.459 27.08C110.85 27.08 110.232 27.096 109.607 27.127C109.138 27.1373 108.669 27.153 108.2 27.174V26.682C108.747 26.682 109.13 26.565 109.349 26.33C109.583 26.096 109.701 25.65 109.701 24.993V17.606C109.701 16.903 109.591 16.386 109.372 16.059C109.169 15.715 108.778 15.543 108.2 15.543V15.05C108.7 15.097 109.185 15.12 109.654 15.12C110.31 15.12 110.92 15.097 111.483 15.05C112.061 14.988 112.593 14.902 113.077 14.792Z" fill="#2F2352"/>
<path fill-rule="evenodd" clip-rule="evenodd" d="M119.677 16.944V14.792C119.193 14.902 118.661 14.988 118.083 15.05C117.504 15.097 116.894 15.12 116.253 15.12C115.784 15.12 115.3 15.097 114.799 15.05V15.543C115.362 15.543 115.753 15.715 115.972 16.059C116.191 16.387 116.3 16.903 116.3 17.606V29.332C116.3 29.957 116.191 30.379 115.972 30.598C115.769 30.817 115.409 30.926 114.893 30.926V31.419L116.136 31.349C116.706 31.3331 117.277 31.3251 117.848 31.325C118.645 31.325 119.396 31.333 120.099 31.348C120.818 31.38 121.381 31.403 121.788 31.418V30.926C121.131 30.926 120.615 30.801 120.24 30.551C119.865 30.317 119.677 29.832 119.677 29.097V26.747C119.883 26.919 120.125 27.061 120.404 27.174C120.904 27.394 121.459 27.503 122.069 27.503C122.898 27.503 123.64 27.354 124.297 27.057C124.965 26.7633 125.552 26.3129 126.009 25.744C126.493 25.15 126.861 24.423 127.111 23.563C127.377 22.703 127.51 21.703 127.51 20.561C127.51 19.264 127.322 18.185 126.947 17.325C126.572 16.449 126.071 15.801 125.446 15.379C124.821 14.9413 124.075 14.7114 123.312 14.722C122.405 14.722 121.608 14.956 120.92 15.425C120.379 15.79 119.965 16.296 119.677 16.945V16.944ZM119.677 17.75V26.251C119.807 26.405 119.964 26.533 120.146 26.635C120.443 26.791 120.779 26.869 121.155 26.869C121.858 26.869 122.413 26.635 122.82 26.166C123.226 25.681 123.515 25.009 123.687 24.149C123.875 23.274 123.969 22.234 123.969 21.03C123.969 19.686 123.883 18.63 123.711 17.864C123.539 17.098 123.304 16.551 123.007 16.223C122.71 15.894 122.351 15.73 121.928 15.73C121.366 15.73 120.85 15.95 120.381 16.387C120.028 16.727 119.793 17.182 119.677 17.75Z" fill="#2F2352"/>
<path d="M132.894 14.7219C133.551 14.7219 134.121 14.8079 134.606 14.9799C135.106 15.1359 135.466 15.2929 135.685 15.4489C136.216 15.8089 136.545 15.5739 136.67 14.7449H137.162C137.131 15.1829 137.107 15.7229 137.092 16.3629C137.076 16.9889 137.068 17.8249 137.068 18.8729H136.576C136.496 18.2866 136.346 17.7119 136.13 17.1609C135.931 16.6262 135.6 16.1502 135.169 15.7769C134.762 15.4169 134.231 15.2369 133.574 15.2369C133.121 15.2369 132.738 15.3709 132.425 15.6369C132.112 15.8869 131.956 16.2539 131.956 16.7389C131.956 17.2079 132.097 17.6219 132.378 17.9819C132.66 18.3259 133.019 18.6619 133.457 18.9899C133.91 19.3029 134.379 19.6389 134.864 19.9979C135.38 20.3889 135.849 20.7799 136.271 21.1709C136.676 21.5246 137.017 21.945 137.279 22.4139C137.53 22.8669 137.655 23.4059 137.655 24.0319C137.655 24.7349 137.451 25.3519 137.045 25.8839C136.638 26.3999 136.099 26.7989 135.427 27.0799C134.77 27.3619 134.035 27.5029 133.223 27.5029C132.796 27.5077 132.371 27.4604 131.956 27.3619C131.631 27.2809 131.316 27.1628 131.018 27.0099C130.815 26.9159 130.619 26.8299 130.432 26.7519C130.272 26.6642 130.108 26.586 129.939 26.5179C129.783 26.4709 129.642 26.5249 129.517 26.6819C129.408 26.8379 129.322 27.0569 129.259 27.3379H128.767C128.798 26.8379 128.822 26.2279 128.837 25.5089C128.853 24.7899 128.861 23.8359 128.861 22.6489H129.353C129.447 23.4929 129.619 24.2429 129.869 24.8989C130.119 25.5409 130.455 26.0489 130.877 26.4239C131.315 26.7839 131.862 26.9639 132.519 26.9639C132.785 26.9639 133.043 26.9089 133.293 26.7989C133.543 26.6889 133.746 26.5089 133.903 26.2589C134.075 26.0089 134.161 25.6889 134.161 25.2989C134.161 24.6099 133.934 24.0389 133.48 23.5859C133.043 23.1329 132.48 22.6399 131.792 22.1089C131.292 21.7019 130.815 21.3039 130.362 20.9129C129.942 20.5286 129.579 20.0865 129.283 19.5999C128.997 19.1004 128.852 18.5332 128.861 17.9579C128.861 17.2549 129.048 16.6609 129.423 16.1759C129.806 15.6858 130.318 15.3122 130.901 15.0969C131.535 14.8452 132.212 14.7179 132.894 14.7219ZM162.005 14.9799C161.598 14.8079 161.067 14.7219 160.41 14.7219C159.675 14.7144 158.949 14.8919 158.3 15.2379C157.659 15.5659 157.151 16.1209 156.775 16.9029V14.7929C156.291 14.9019 155.759 14.9879 155.181 15.0499C154.618 15.0969 154.008 15.1199 153.352 15.1199C152.883 15.1199 152.398 15.0969 151.898 15.0499V15.5429C152.476 15.5429 152.867 15.7149 153.07 16.0589C153.289 16.3869 153.398 16.9029 153.398 17.6059V24.9929C153.398 25.6499 153.281 26.0959 153.047 26.3299C152.828 26.5649 152.445 26.6819 151.898 26.6819V27.1739C152.367 27.1529 152.836 27.1372 153.305 27.1269C153.914 27.096 154.524 27.0804 155.134 27.0799C155.681 27.0799 156.213 27.0959 156.728 27.1269C157.26 27.1429 157.651 27.1589 157.901 27.1739V26.6819C157.495 26.6819 157.205 26.5649 157.033 26.3299C156.861 26.0959 156.775 25.6499 156.775 24.9929V18.4739C156.775 17.9579 156.877 17.4969 157.08 17.0899C157.299 16.6679 157.58 16.3399 157.924 16.1059C158.254 15.8757 158.647 15.7528 159.05 15.7539C159.41 15.7539 159.675 15.8399 159.847 16.0119C160.035 16.1679 160.16 16.3949 160.223 16.6919C160.285 16.9729 160.316 17.3089 160.316 17.6999V24.9929C160.316 25.6499 160.23 26.0959 160.058 26.3299C159.902 26.5649 159.613 26.6819 159.191 26.6819V27.1739C159.472 27.1589 159.886 27.1429 160.434 27.1269C161.543 27.0636 162.655 27.0636 163.764 27.1269C164.342 27.1429 164.772 27.1589 165.053 27.1739V26.6819C164.553 26.6819 164.201 26.5649 163.998 26.3299C163.795 26.0959 163.693 25.6499 163.693 24.9929V18.5779L163.692 18.5049L163.688 18.2679C163.724 17.8759 163.829 17.4934 163.998 17.1379C164.217 16.7149 164.498 16.3789 164.842 16.1289C165.186 15.8789 165.562 15.7539 165.968 15.7539C166.374 15.7539 166.672 15.8399 166.859 16.0119C167.062 16.1679 167.195 16.3949 167.258 16.6919C167.336 16.9729 167.375 17.3089 167.375 17.6999V24.9929C167.375 25.6499 167.289 26.0959 167.117 26.3299C166.961 26.5649 166.672 26.6819 166.249 26.6819V27.1739C166.531 27.1589 166.945 27.1429 167.492 27.1269C168.046 27.0954 168.602 27.0798 169.157 27.0799C169.736 27.0799 170.322 27.0959 170.916 27.1269C171.51 27.1429 171.956 27.1589 172.253 27.1739V26.6819C171.706 26.6819 171.315 26.5649 171.08 26.3299C170.861 26.0959 170.752 25.6499 170.752 24.9929V18.6849C170.752 17.9029 170.697 17.2779 170.588 16.8089C170.478 16.3239 170.299 15.9339 170.048 15.6369C169.798 15.3549 169.47 15.1369 169.063 14.9799C168.657 14.8079 168.125 14.7219 167.469 14.7219C166.672 14.7219 165.921 14.8859 165.218 15.2139C164.544 15.5359 163.998 16.1499 163.579 17.0559C163.565 16.9731 163.548 16.8908 163.529 16.8089C163.42 16.3239 163.24 15.9339 162.99 15.6369C162.74 15.3549 162.411 15.1369 162.005 14.9799ZM150.058 24.6179V14.7919C149.573 14.9019 149.042 14.9879 148.463 15.0499C147.901 15.0969 147.291 15.1199 146.634 15.1199C146.165 15.1199 145.681 15.0969 145.18 15.0499V15.5429C145.759 15.5429 146.15 15.7149 146.353 16.0589C146.572 16.3869 146.681 16.9029 146.681 17.6059V23.7499C146.681 24.2659 146.572 24.7349 146.353 25.1569C146.167 25.5433 145.884 25.8748 145.532 26.1189C145.204 26.3536 144.809 26.477 144.406 26.4709C144.016 26.4709 143.719 26.3919 143.515 26.2359C143.304 26.0515 143.157 25.8056 143.093 25.5329C143.027 25.193 142.995 24.8472 142.999 24.5009V14.7919C142.515 14.9019 141.983 14.9879 141.405 15.0499C140.842 15.0969 140.232 15.1199 139.576 15.1199C139.107 15.1199 138.622 15.0969 138.122 15.0499V15.5429C138.7 15.5429 139.091 15.7149 139.294 16.0589C139.513 16.3869 139.622 16.9029 139.622 17.6059V23.5389C139.622 24.3049 139.677 24.9309 139.787 25.4149C139.896 25.8999 140.084 26.2909 140.349 26.5879C140.584 26.8539 140.904 27.0729 141.311 27.2449C141.717 27.4159 142.249 27.5029 142.906 27.5029C143.719 27.5029 144.453 27.3379 145.11 27.0099C145.782 26.6659 146.306 26.1029 146.681 25.3219V27.4319C147.205 27.303 147.738 27.2167 148.276 27.1739C148.839 27.1269 149.448 27.1039 150.105 27.1039C150.59 27.1039 151.074 27.1269 151.559 27.1739V26.6819C150.996 26.6819 150.605 26.5179 150.386 26.1889C150.167 25.8449 150.058 25.3219 150.058 24.6189V24.6179Z" fill="#2F2352"/>
<path fill-rule="evenodd" clip-rule="evenodd" d="M104.696 15.3549C103.836 14.9329 102.835 14.7219 101.694 14.7219C100.584 14.7219 99.591 14.9329 98.716 15.3549C97.856 15.7769 97.176 16.4569 96.676 17.3949C96.191 18.3329 95.948 19.5759 95.948 21.1239C95.948 22.6719 96.191 23.9139 96.675 24.8529C97.175 25.7749 97.855 26.4469 98.715 26.8689C99.591 27.2909 100.584 27.5029 101.694 27.5029C102.835 27.5029 103.836 27.2909 104.696 26.8689C105.555 26.4469 106.228 25.7749 106.712 24.8529C107.197 23.9149 107.439 22.6719 107.439 21.1239C107.439 19.5759 107.197 18.3339 106.712 17.3949C106.228 16.4569 105.555 15.7769 104.696 15.3549ZM100.123 16.5979C100.545 15.6599 101.069 15.1909 101.694 15.1909C102.335 15.1909 102.859 15.6599 103.265 16.5979C103.687 17.5199 103.898 19.0289 103.898 21.1239C103.898 23.2189 103.687 24.7279 103.265 25.6499C102.859 26.5719 102.335 27.0339 101.694 27.0339C101.069 27.0339 100.545 26.5719 100.123 25.6499C99.701 24.7279 99.49 23.2189 99.49 21.1239C99.49 19.0289 99.7 17.5199 100.123 16.5979ZM88.301 31.5829C87.331 31.5829 86.464 31.4969 85.698 31.3249C84.948 31.1689 84.354 30.9189 83.916 30.5749C83.494 30.2459 83.283 29.8399 83.283 29.3549C83.283 28.8699 83.501 28.4329 83.939 28.0419C84.377 27.6669 85.026 27.3699 85.886 27.1509L86.096 27.5259C85.8275 27.7276 85.6041 27.983 85.44 28.2759C85.315 28.5579 85.252 28.8469 85.252 29.1439C85.252 29.8009 85.549 30.3009 86.144 30.6439C86.754 31.0039 87.574 31.1839 88.606 31.1839C89.309 31.1839 89.935 31.0899 90.482 30.9029C91.045 30.7149 91.482 30.4329 91.795 30.0589C92.124 29.6829 92.288 29.2219 92.288 28.6749C92.288 28.2059 92.116 27.8069 91.772 27.4789C91.428 27.1659 90.74 27.0099 89.708 27.0099H88.254C87.614 27.0099 87.05 26.9399 86.566 26.7989C86.096 26.6589 85.729 26.4389 85.463 26.1419C85.198 25.8299 85.065 25.4389 85.065 24.9699C85.065 24.3129 85.323 23.7349 85.839 23.2339C86.243 22.8419 86.801 22.4689 87.513 22.1159C87.0449 22.0577 86.5851 21.9453 86.143 21.7809C85.44 21.5149 84.885 21.1079 84.479 20.5609C84.072 20.0139 83.869 19.3109 83.869 18.4509C83.869 17.5909 84.072 16.8869 84.479 16.3399C84.885 15.7769 85.44 15.3699 86.144 15.1199C86.847 14.8549 87.644 14.7219 88.535 14.7219C89.427 14.7219 90.224 14.8549 90.927 15.1209C91.391 15.2849 91.789 15.5179 92.124 15.8179C92.323 15.5309 92.565 15.2749 92.85 15.0499C93.382 14.6439 93.953 14.4399 94.562 14.4399C95.062 14.4399 95.438 14.5809 95.688 14.8629C95.954 15.1279 96.087 15.4799 96.087 15.9179C96.087 16.3869 95.961 16.7379 95.711 16.9729C95.461 17.1929 95.18 17.3019 94.867 17.3019C94.5918 17.2983 94.3265 17.1985 94.117 17.0199C93.897 16.8319 93.773 16.5509 93.742 16.1759C93.715 15.8399 93.809 15.4239 94.024 14.9259C93.568 15.1199 93.216 15.3409 92.968 15.5899C92.781 15.7702 92.6177 15.9735 92.482 16.1949C92.52 16.2419 92.557 16.2909 92.592 16.3399C92.999 16.8869 93.202 17.5899 93.202 18.4499C93.202 19.3099 92.999 20.0139 92.592 20.5609C92.186 21.1079 91.631 21.5149 90.927 21.7809C90.224 22.0459 89.427 22.1789 88.535 22.1789C88.4016 22.1791 88.2682 22.1761 88.135 22.1699C87.924 22.3129 87.721 22.4649 87.527 22.6249C87.4065 22.7192 87.3098 22.8404 87.2447 22.9788C87.1796 23.1173 87.1478 23.269 87.152 23.4219C87.152 23.9219 87.465 24.1719 88.09 24.1719H90.646C91.506 24.1719 92.272 24.2739 92.944 24.4769C93.632 24.6809 94.171 25.0169 94.562 25.4859C94.969 25.9389 95.172 26.5329 95.172 27.2679C95.172 28.0339 94.922 28.7449 94.422 29.4019C93.937 30.0589 93.187 30.5819 92.17 30.9729C91.154 31.3799 89.864 31.5829 88.301 31.5829ZM88.535 21.7569C88.958 21.7569 89.285 21.5229 89.52 21.0539C89.755 20.5689 89.872 19.7009 89.872 18.4509C89.872 17.1999 89.755 16.3399 89.52 15.8709C89.286 15.3859 88.958 15.1439 88.536 15.1439C88.129 15.1439 87.801 15.3859 87.551 15.8709C87.316 16.3399 87.199 17.1999 87.199 18.4509C87.199 19.7009 87.316 20.5689 87.551 21.0539C87.801 21.5229 88.129 21.7569 88.535 21.7569ZM80.247 15.3549C79.387 14.9329 78.387 14.7219 77.246 14.7219C76.136 14.7219 75.143 14.9329 74.268 15.3549C73.408 15.7769 72.728 16.4569 72.228 17.3949C71.743 18.3329 71.5 19.5759 71.5 21.1239C71.5 22.6719 71.743 23.9139 72.227 24.8529C72.727 25.7749 73.407 26.4469 74.267 26.8689C75.143 27.2909 76.136 27.5029 77.246 27.5029C78.387 27.5029 79.388 27.2909 80.247 26.8689C81.107 26.4469 81.779 25.7749 82.264 24.8529C82.749 23.9149 82.991 22.6719 82.991 21.1239C82.991 19.5759 82.749 18.3339 82.264 17.3949C81.78 16.4569 81.107 15.7769 80.247 15.3549ZM75.674 16.5979C76.097 15.6599 76.62 15.1909 77.246 15.1909C77.886 15.1909 78.41 15.6599 78.816 16.5979C79.239 17.5199 79.45 19.0289 79.45 21.1239C79.45 23.2189 79.239 24.7279 78.817 25.6499C78.41 26.5719 77.887 27.0339 77.246 27.0339C76.62 27.0339 76.096 26.5719 75.674 25.6499C75.252 24.7279 75.041 23.2189 75.041 21.1239C75.041 19.0289 75.252 17.5199 75.674 16.5979Z" fill="#2F2352"/>
<path d="M65.184 10.5708V11.0408C64.653 11.0558 64.246 11.1178 63.965 11.2278C63.8363 11.2713 63.7201 11.3453 63.6261 11.4433C63.5321 11.5413 63.4631 11.6605 63.425 11.7908C63.332 12.0558 63.285 12.4788 63.285 13.0568V24.9698C63.285 25.4538 63.316 25.8138 63.379 26.0488C63.457 26.2828 63.598 26.4388 63.801 26.5178C64.02 26.5958 64.341 26.6348 64.762 26.6348H65.912C66.442 26.6348 66.943 26.5098 67.412 26.2598C67.882 26.0098 68.303 25.6578 68.678 25.2038C69.0735 24.6996 69.3901 24.1382 69.617 23.5388C69.867 22.8988 70.054 22.1868 70.179 21.4048H70.719C70.672 21.9368 70.649 22.6248 70.649 23.4688C70.649 23.8288 70.656 24.3518 70.672 25.0398C70.688 25.7278 70.734 26.4398 70.812 27.1738C69.9137 27.1407 69.0149 27.125 68.116 27.1268C67.116 27.1118 66.224 27.1038 65.442 27.1038H63.942C63.332 27.1038 62.675 27.1118 61.972 27.1268C61.268 27.1268 60.557 27.1348 59.838 27.1508C59.118 27.1508 58.438 27.1588 57.798 27.1738V26.7048C58.298 26.6738 58.673 26.6108 58.923 26.5178C59.173 26.4238 59.337 26.2358 59.416 25.9548C59.509 25.6728 59.556 25.2508 59.556 24.6878V13.0568C59.556 12.4778 59.509 12.0568 59.416 11.7908C59.3852 11.6607 59.3216 11.5407 59.2313 11.4421C59.1409 11.3436 59.0269 11.2698 58.9 11.2278C58.65 11.1178 58.282 11.0558 57.798 11.0398V10.5708C59.0324 10.6165 60.2676 10.6399 61.503 10.6408C62.191 10.6408 62.863 10.6338 63.519 10.6178C64.192 10.6018 64.747 10.5868 65.184 10.5708Z" fill="#2F2352"/>
<path fill-rule="evenodd" clip-rule="evenodd" d="M169.871 46.5532C169.838 46.3852 169.86 46.1662 169.939 45.8962L173.242 33.9292C172.713 34.1461 172.166 34.3151 171.607 34.4342C171.034 34.5472 170.377 34.6082 169.635 34.6202L169.517 34.9742C170.068 34.9742 170.411 35.0642 170.546 35.2442C170.68 35.4242 170.697 35.7042 170.596 36.0862L169.814 39.0352C169.765 38.8929 169.68 38.7656 169.568 38.6652C169.377 38.4852 169.113 38.3952 168.776 38.3952C168.102 38.3952 167.478 38.5472 166.905 38.8502C166.329 39.1651 165.81 39.5756 165.371 40.0642C164.91 40.5593 164.519 41.1151 164.208 41.7162C163.902 42.3011 163.659 42.9169 163.483 43.5532C163.323 44.1013 163.238 44.6684 163.23 45.2392C163.23 45.7782 163.315 46.2222 163.483 46.5702C163.652 46.9072 163.882 47.1602 164.174 47.3282C164.466 47.4862 164.792 47.5642 165.152 47.5642C165.702 47.5642 166.197 47.4022 166.635 47.0762C167.073 46.7392 167.483 46.2222 167.866 45.5252C168.026 45.2412 168.187 44.9222 168.347 44.5682L168.236 44.9862C168.134 45.3155 168.067 45.6542 168.034 45.9972C168.012 46.2892 168.034 46.5372 168.102 46.7392C168.236 47.2892 168.652 47.5652 169.349 47.5652C169.607 47.5652 169.871 47.5142 170.141 47.4132C170.411 47.3122 170.663 47.1382 170.899 46.8902C171.147 46.6432 171.343 46.2902 171.489 45.8282L171.894 44.5982H171.574L171.304 45.3562C171.102 45.9302 170.911 46.3172 170.731 46.5192C170.562 46.7112 170.388 46.8062 170.208 46.8062C170.017 46.8062 169.905 46.7222 169.871 46.5532ZM168.972 42.2132C168.845 42.6242 168.707 43.0152 168.557 43.3842C168.276 44.1042 167.978 44.7222 167.663 45.2392C167.36 45.7442 167.062 46.1372 166.77 46.4192C166.478 46.6882 166.219 46.8232 165.995 46.8232C165.781 46.8232 165.624 46.7222 165.523 46.5202C165.433 46.3062 165.388 45.9862 165.388 45.5592C165.388 44.9522 165.455 44.3342 165.59 43.7052C165.725 43.0652 165.91 42.4522 166.146 41.8682C166.363 41.3201 166.634 40.7949 166.955 40.3002C167.259 39.8282 167.579 39.4572 167.916 39.1872C168.264 38.9172 168.607 38.7832 168.944 38.7832C169.169 38.7832 169.349 38.8622 169.484 39.0192C169.578 39.1212 169.65 39.2692 169.7 39.4652L168.972 42.2132Z" fill="#2F2352"/>
<path d="M158.655 47.328H156.582L158.604 40.064C158.706 39.727 158.739 39.491 158.706 39.356C158.672 39.221 158.571 39.154 158.402 39.154C158.189 39.154 157.992 39.261 157.812 39.474C157.632 39.687 157.447 40.064 157.256 40.604L156.969 41.395H156.649L157.087 40.131C157.245 39.681 157.441 39.334 157.677 39.086C157.913 38.828 158.172 38.648 158.453 38.547C158.734 38.446 159.02 38.395 159.312 38.395C159.672 38.395 159.936 38.468 160.104 38.615C160.284 38.761 160.397 38.952 160.442 39.188C160.499 39.4424 160.51 39.7048 160.475 39.963C160.453 40.233 160.408 40.497 160.34 40.755L160.069 41.812L160.138 41.632C160.453 40.834 160.756 40.199 161.048 39.727C161.352 39.244 161.672 38.901 162.009 38.699C162.339 38.4983 162.719 38.3931 163.105 38.395C163.509 38.395 163.818 38.513 164.032 38.749C164.257 38.985 164.369 39.277 164.369 39.626C164.369 39.906 164.301 40.171 164.167 40.418C164.036 40.6498 163.851 40.8464 163.627 40.991C163.414 41.126 163.167 41.193 162.886 41.193C162.605 41.193 162.38 41.12 162.211 40.974C162.054 40.828 161.975 40.614 161.975 40.334C161.975 40.086 162.032 39.862 162.144 39.659C162.252 39.4614 162.402 39.2892 162.582 39.154C162.762 39.008 162.959 38.907 163.172 38.85C163.148 38.8269 163.12 38.8097 163.088 38.8C163.05 38.7881 163.01 38.7824 162.97 38.783C162.723 38.783 162.47 38.873 162.211 39.053C161.953 39.221 161.683 39.497 161.402 39.879C161.121 40.261 160.835 40.766 160.543 41.395C160.213 42.1388 159.921 42.8984 159.666 43.671C159.539 44.045 159.411 44.447 159.283 44.878L158.655 47.328Z" fill="#2F2352"/>
<path fill-rule="evenodd" clip-rule="evenodd" d="M152.357 44.7242L152.286 44.9862C152.18 45.3668 152.106 45.7559 152.067 46.1492C152.033 46.5092 152.089 46.8122 152.235 47.0592C152.46 47.3962 152.842 47.5652 153.381 47.5652C153.64 47.5652 153.898 47.5142 154.157 47.4132C154.426 47.3122 154.679 47.1382 154.915 46.8902C155.151 46.6322 155.348 46.2722 155.505 45.8122L155.927 44.5822H155.606L155.353 45.3402C155.151 45.9242 154.955 46.3122 154.764 46.5032C154.573 46.6932 154.387 46.7892 154.207 46.7892C154.061 46.7892 153.966 46.7442 153.921 46.6542C153.886 46.5397 153.874 46.4193 153.887 46.3002C153.909 46.1573 153.943 46.0165 153.988 45.8792L156.163 38.3952C155.825 38.4761 155.481 38.5326 155.134 38.5642C154.786 38.5982 154.41 38.6202 154.005 38.6312L153.761 39.5332C153.751 39.3042 153.684 39.0812 153.567 38.8842C153.479 38.7306 153.351 38.6039 153.197 38.5177C153.042 38.4315 152.867 38.3892 152.69 38.3952C152.196 38.3952 151.702 38.5472 151.207 38.8502C150.681 39.1808 150.209 39.5902 149.808 40.0642C149.354 40.5811 148.959 41.1461 148.628 41.7492C148.297 42.354 148.031 42.9927 147.836 43.6542C147.652 44.2494 147.556 44.8682 147.55 45.4912C147.55 46.1212 147.696 46.6262 147.988 47.0082C148.28 47.3792 148.729 47.5642 149.336 47.5642C149.763 47.5642 150.173 47.4412 150.567 47.1942C150.971 46.9462 151.353 46.5362 151.713 45.9642C151.936 45.6192 152.15 45.2062 152.357 44.7242ZM150.904 46.4352C150.645 46.6712 150.415 46.7892 150.213 46.7892C150.044 46.7892 149.915 46.7052 149.825 46.5362C149.746 46.3562 149.707 46.0592 149.707 45.6432C149.707 45.0472 149.774 44.4352 149.909 43.8062C150.044 43.1762 150.224 42.5702 150.449 41.9862C150.685 41.4012 150.943 40.8792 151.224 40.4182C151.505 39.9582 151.786 39.5922 152.067 39.3222C152.359 39.0522 152.634 38.9182 152.893 38.9182C153.162 38.9182 153.353 39.0532 153.466 39.3222C153.578 39.5662 153.607 39.8932 153.553 40.3022L153.055 42.1442L153.112 41.8512C152.932 42.5702 152.718 43.2332 152.471 43.8402C152.256 44.3829 151.997 44.9069 151.696 45.4072C151.426 45.8452 151.162 46.1882 150.904 46.4352ZM145.284 45.8962C145.205 46.1662 145.183 46.3852 145.217 46.5532C145.25 46.7222 145.363 46.8062 145.554 46.8062C145.734 46.8062 145.908 46.7112 146.076 46.5202C146.256 46.3172 146.447 45.9302 146.649 45.3562L146.919 44.5982H147.239L146.835 45.8282C146.689 46.2892 146.492 46.6432 146.245 46.8902C146.035 47.1199 145.775 47.2987 145.486 47.4132C145.233 47.5113 144.965 47.5628 144.694 47.5652C143.998 47.5652 143.582 47.2892 143.447 46.7392C143.376 46.4987 143.353 46.2465 143.38 45.9972C143.402 45.7052 143.469 45.3672 143.582 44.9862L143.693 44.5682C143.532 44.9222 143.371 45.2412 143.211 45.5252C142.829 46.2222 142.419 46.7392 141.981 47.0752C141.554 47.3978 141.032 47.57 140.497 47.5652C140.138 47.5652 139.812 47.4852 139.52 47.3292C139.219 47.1511 138.978 46.8867 138.829 46.5702C138.66 46.2222 138.576 45.7782 138.576 45.2392C138.576 44.7222 138.66 44.1592 138.829 43.5532C138.997 42.9352 139.239 42.3232 139.553 41.7162C139.864 41.1153 140.255 40.5596 140.716 40.0642C141.177 39.5582 141.688 39.1542 142.25 38.8502C142.826 38.546 143.469 38.3897 144.121 38.3952C144.458 38.3952 144.722 38.4852 144.913 38.6652C145.023 38.7622 145.106 38.8852 145.16 39.0352L145.941 36.0862C146.043 35.7042 146.026 35.4232 145.891 35.2432C145.756 35.0632 145.413 34.9732 144.863 34.9732L144.981 34.6202C145.643 34.6164 146.302 34.5542 146.953 34.4342C147.512 34.3151 148.059 34.1461 148.588 33.9292L145.284 45.8962ZM143.902 43.3842C144.052 43.0142 144.191 42.6242 144.317 42.2132L145.046 39.4652C145.011 39.3011 144.936 39.1481 144.829 39.0192C144.763 38.9417 144.68 38.8802 144.587 38.8394C144.493 38.7985 144.392 38.7793 144.29 38.7832C143.953 38.7832 143.61 38.9182 143.262 39.1872C142.924 39.4572 142.604 39.8282 142.301 40.3002C141.98 40.7944 141.709 41.3193 141.492 41.8672C141.253 42.4621 141.066 43.0772 140.936 43.7052C140.803 44.3143 140.735 44.9358 140.733 45.5592C140.733 45.9862 140.778 46.3062 140.868 46.5192C140.969 46.7222 141.127 46.8232 141.34 46.8232C141.565 46.8232 141.823 46.6882 142.115 46.4182C142.408 46.1382 142.705 45.7442 143.009 45.2382C143.359 44.6469 143.658 44.0266 143.902 43.3842Z" fill="#2F2352"/>
<path d="M129.294 47.328H131.367L131.562 46.566L131.552 46.621C131.766 45.834 132.007 45.076 132.277 44.345C132.539 43.6474 132.831 42.9614 133.153 42.289C133.457 41.659 133.76 41.109 134.064 40.637C134.367 40.165 134.659 39.8 134.94 39.541C135.221 39.271 135.479 39.137 135.715 39.137C135.906 39.137 136.024 39.204 136.069 39.339C136.116 39.4922 136.121 39.6549 136.086 39.811C136.052 39.9937 136.007 40.174 135.951 40.351L134.418 44.986C134.26 45.458 134.17 45.862 134.148 46.199C134.125 46.536 134.187 46.812 134.333 47.025C134.446 47.194 134.603 47.323 134.805 47.413C135.019 47.513 135.272 47.565 135.564 47.565C135.833 47.565 136.103 47.514 136.373 47.413C136.654 47.323 136.912 47.154 137.148 46.907C137.395 46.66 137.598 46.3 137.755 45.828L138.176 44.598H137.856L137.586 45.356C137.373 45.941 137.171 46.328 136.98 46.519C136.8 46.711 136.626 46.806 136.457 46.806C136.277 46.806 136.165 46.733 136.12 46.586C136.075 46.43 136.103 46.199 136.204 45.896L137.856 40.94C138.002 40.502 138.075 40.092 138.075 39.71C138.086 39.317 137.98 39.002 137.755 38.766C137.541 38.519 137.159 38.396 136.609 38.396C136.193 38.396 135.794 38.486 135.412 38.665C135.03 38.845 134.659 39.159 134.3 39.609C133.94 40.047 133.569 40.643 133.187 41.395C132.933 41.9023 132.701 42.4197 132.49 42.946L133.052 40.755C133.12 40.485 133.17 40.215 133.204 39.946C133.238 39.666 133.226 39.412 133.17 39.187C133.116 38.9547 132.978 38.7505 132.783 38.614C132.592 38.468 132.311 38.395 131.94 38.395C131.49 38.395 131.08 38.519 130.709 38.766C130.339 39.013 130.035 39.468 129.799 40.131L129.361 41.395H129.681L129.968 40.603C130.17 40.053 130.355 39.676 130.524 39.474C130.704 39.261 130.9 39.154 131.114 39.154C131.271 39.154 131.367 39.199 131.401 39.289C131.445 39.379 131.457 39.491 131.434 39.626C131.409 39.7738 131.375 39.9201 131.333 40.064L129.294 47.328Z" fill="#2F2352"/>
<path fill-rule="evenodd" clip-rule="evenodd" d="M124.998 44.986L125.069 44.724C124.889 45.1544 124.674 45.5692 124.425 45.964C124.065 46.536 123.683 46.947 123.278 47.194C122.885 47.441 122.475 47.564 122.048 47.564C121.441 47.564 120.992 47.379 120.7 47.008C120.407 46.626 120.261 46.121 120.261 45.491C120.261 44.907 120.357 44.295 120.548 43.654C120.743 42.9925 121.008 42.3538 121.34 41.749C121.67 41.1457 122.066 40.5806 122.52 40.064C122.921 39.5901 123.393 39.1806 123.919 38.85C124.413 38.547 124.908 38.395 125.402 38.395C125.784 38.395 126.076 38.558 126.279 38.885C126.387 39.052 126.452 39.268 126.473 39.533L126.717 38.631C127.121 38.62 127.498 38.598 127.846 38.564C128.206 38.53 128.548 38.474 128.874 38.395L126.7 45.88C126.654 46.0172 126.62 46.158 126.599 46.301C126.586 46.4201 126.598 46.5405 126.633 46.655C126.678 46.745 126.773 46.79 126.919 46.79C127.099 46.79 127.284 46.695 127.475 46.504C127.666 46.313 127.863 45.924 128.065 45.341L128.318 44.582H128.638L128.217 45.812C128.06 46.273 127.863 46.632 127.627 46.892C127.417 47.1211 127.158 47.2996 126.869 47.414C126.622 47.513 126.359 47.5645 126.093 47.566C125.554 47.566 125.172 47.397 124.947 47.06C124.801 46.813 124.745 46.51 124.779 46.15C124.818 45.7568 124.892 45.3666 124.998 44.986ZM122.924 46.789C123.127 46.789 123.357 46.671 123.616 46.435C123.874 46.188 124.138 45.845 124.408 45.407C124.677 44.969 124.936 44.447 125.183 43.84C125.43 43.233 125.644 42.57 125.824 41.85L125.767 42.144L126.265 40.303C126.318 39.893 126.289 39.566 126.178 39.323C126.065 39.053 125.874 38.918 125.604 38.918C125.346 38.918 125.071 39.053 124.779 39.322C124.498 39.592 124.217 39.957 123.936 40.418C123.655 40.878 123.396 41.401 123.16 41.985C122.934 42.5769 122.753 43.1853 122.621 43.805C122.489 44.4088 122.421 45.0249 122.419 45.643C122.419 46.059 122.458 46.357 122.537 46.536C122.627 46.705 122.756 46.789 122.924 46.789Z" fill="#2F2352"/>
<path d="M121.43 38.9682L121.481 38.6312H119.473L120.267 35.8672C119.935 35.949 119.597 36.0055 119.256 36.0362C118.908 36.0692 118.531 36.0922 118.127 36.1032L117.402 38.6312H115.868L115.784 38.9682H117.306L115.581 44.9862C115.435 45.4802 115.385 45.9242 115.43 46.3172C115.486 46.6992 115.643 47.0032 115.902 47.2272C116.171 47.4522 116.559 47.5652 117.065 47.5652C117.638 47.5652 118.132 47.4132 118.548 47.1092C118.964 46.8062 119.29 46.3062 119.526 45.6092L119.863 44.5982H119.542L119.29 45.2892C119.087 45.8512 118.863 46.2442 118.615 46.4692C118.379 46.6942 118.143 46.8062 117.907 46.8062C117.814 46.8093 117.722 46.791 117.637 46.7529C117.553 46.7147 117.478 46.6577 117.419 46.5862C117.306 46.4412 117.295 46.2112 117.385 45.8962L119.376 38.9682H121.43ZM115.848 35.2772C115.736 35.5692 115.584 35.9972 115.393 36.5582C115.213 37.1082 115.034 37.8282 114.854 38.7152H114.517C114.55 38.5582 114.573 38.3952 114.584 38.2272C114.606 38.0764 114.617 37.9244 114.618 37.7722C114.618 37.3332 114.528 36.9522 114.348 36.6262C114.175 36.2843 113.898 36.0065 113.556 35.8332C113.208 35.6312 112.758 35.5302 112.208 35.5302C111.612 35.5302 111.106 35.6872 110.691 36.0022C110.275 36.3052 110.067 36.7942 110.067 37.4682C110.067 37.8842 110.162 38.2782 110.353 38.6482C110.556 39.0082 110.809 39.3622 111.112 39.7102C111.427 40.0472 111.758 40.3902 112.106 40.7382C112.455 41.0752 112.781 41.4242 113.084 41.7832C113.387 42.1432 113.635 42.5252 113.826 42.9292C114.028 43.3232 114.129 43.7552 114.129 44.2272C114.129 44.8232 113.983 45.3342 113.691 45.7612C113.406 46.1806 113.032 46.5317 112.595 46.7892C112.137 47.051 111.643 47.2441 111.129 47.3622C110.634 47.4944 110.124 47.5626 109.612 47.5652C109.106 47.5652 108.685 47.5252 108.348 47.4472C108.06 47.3929 107.782 47.2962 107.522 47.1602C107.301 47.0392 107.082 46.9159 106.864 46.7902C106.765 46.7069 106.65 46.6437 106.527 46.6042C106.448 46.5647 106.363 46.5416 106.275 46.5362C106.128 46.5362 106.005 46.6092 105.904 46.7562C105.771 46.9757 105.659 47.2066 105.567 47.4462H105.229C105.507 46.7608 105.739 46.0571 105.921 45.3402C106.055 44.8232 106.207 44.1772 106.376 43.4012H106.713C106.666 43.6244 106.627 43.8492 106.595 44.0752C106.561 44.3002 106.55 44.5252 106.561 44.7502C106.595 45.5362 106.836 46.1432 107.286 46.5702C107.747 46.9972 108.421 47.2102 109.308 47.2102C110.061 47.2102 110.629 47.0532 111.011 46.7392C111.393 46.4132 111.584 45.9412 111.584 45.3232C111.584 44.8512 111.494 44.4232 111.314 44.0422C111.144 43.6459 110.917 43.2766 110.64 42.9462C110.354 42.6043 110.056 42.2727 109.747 41.9522C109.437 41.6316 109.139 41.2997 108.853 40.9572C108.577 40.6168 108.345 40.2433 108.162 39.8452C107.978 39.4196 107.886 38.9598 107.893 38.4962C107.893 37.9352 108.011 37.4462 108.247 37.0302C108.485 36.6244 108.806 36.274 109.19 36.0022C109.584 35.7212 110.023 35.5101 110.488 35.3782C110.941 35.2352 111.412 35.1614 111.887 35.1592C112.494 35.1592 112.994 35.2322 113.387 35.3792C113.781 35.5242 114.118 35.6992 114.399 35.9012L114.719 36.1032C114.82 36.1482 114.899 36.1702 114.955 36.1702C115.112 36.1702 115.298 35.8732 115.511 35.2772H115.848Z" fill="#2F2352"/>
<path fill-rule="evenodd" clip-rule="evenodd" d="M99.578 46.5532C99.544 46.3852 99.567 46.1662 99.646 45.8962L102.949 33.9292C102.42 34.1461 101.873 34.3151 101.314 34.4342C100.741 34.5472 100.084 34.6082 99.342 34.6202L99.224 34.9742C99.774 34.9742 100.118 35.0642 100.252 35.2442C100.387 35.4242 100.404 35.7042 100.303 36.0862L99.521 39.0352C99.4719 38.8929 99.3872 38.7655 99.275 38.6652C99.084 38.4852 98.82 38.3952 98.483 38.3952C97.808 38.3952 97.185 38.5472 96.612 38.8502C96.0356 39.1651 95.5169 39.5756 95.078 40.0642C94.6169 40.5593 94.2256 41.1151 93.915 41.7162C93.6089 42.3011 93.3659 42.9169 93.19 43.5532C93.03 44.1012 92.9449 44.6684 92.937 45.2392C92.937 45.7782 93.022 46.2222 93.19 46.5702C93.359 46.9072 93.589 47.1602 93.881 47.3282C94.173 47.4862 94.499 47.5642 94.859 47.5642C95.409 47.5642 95.904 47.4022 96.342 47.0762C96.78 46.7392 97.19 46.2222 97.572 45.5252C97.732 45.2412 97.893 44.9222 98.054 44.5682L97.944 44.9862C97.8418 45.3153 97.7737 45.6541 97.741 45.9972C97.7142 46.2465 97.7369 46.4987 97.808 46.7392C97.943 47.2892 98.358 47.5652 99.056 47.5652C99.314 47.5652 99.578 47.5142 99.848 47.4132C100.118 47.3122 100.37 47.1382 100.606 46.8902C100.854 46.6432 101.05 46.2902 101.196 45.8282L101.601 44.5982H101.281L101.011 45.3562C100.809 45.9302 100.618 46.3172 100.438 46.5192C100.269 46.7112 100.095 46.8062 99.915 46.8062C99.725 46.8062 99.612 46.7222 99.578 46.5532ZM98.678 42.2132C98.552 42.6242 98.414 43.0152 98.263 43.3842C97.983 44.1042 97.685 44.7222 97.37 45.2392C97.067 45.7442 96.769 46.1372 96.477 46.4192C96.185 46.6882 95.927 46.8232 95.701 46.8232C95.488 46.8232 95.331 46.7222 95.23 46.5202C95.14 46.3062 95.095 45.9862 95.095 45.5592C95.095 44.9522 95.162 44.3342 95.297 43.7052C95.432 43.0652 95.617 42.4522 95.853 41.8682C96.0705 41.32 96.3418 40.7948 96.663 40.3002C96.966 39.8282 97.286 39.4572 97.623 39.1872C97.971 38.9172 98.314 38.7832 98.651 38.7832C98.876 38.7832 99.056 38.8622 99.191 39.0192C99.285 39.1212 99.357 39.2692 99.407 39.4652L98.678 42.2132Z" fill="#2F2352"/>
<path d="M85.728 47.328H83.655L85.695 40.064C85.74 39.907 85.773 39.761 85.795 39.626C85.8201 39.513 85.8085 39.395 85.762 39.289C85.728 39.199 85.632 39.154 85.475 39.154C85.262 39.154 85.065 39.261 84.885 39.474C84.717 39.676 84.531 40.053 84.329 40.604L84.043 41.395H83.723L84.161 40.131C84.397 39.468 84.701 39.013 85.071 38.766C85.441 38.519 85.851 38.396 86.301 38.396C86.672 38.396 86.953 38.468 87.144 38.614C87.3399 38.7503 87.4782 38.9545 87.532 39.187C87.588 39.412 87.599 39.665 87.566 39.946C87.5317 40.2185 87.4809 40.4886 87.414 40.755L86.852 42.947C87.09 42.358 87.322 41.842 87.549 41.395C87.931 40.643 88.301 40.047 88.661 39.609C89.021 39.159 89.391 38.845 89.773 38.665C90.156 38.485 90.554 38.395 90.97 38.395C91.52 38.395 91.903 38.519 92.116 38.766C92.341 39.002 92.448 39.316 92.436 39.71C92.436 40.092 92.364 40.502 92.217 40.94L90.566 45.896C90.464 46.199 90.436 46.43 90.481 46.586C90.526 46.733 90.639 46.806 90.819 46.806C90.987 46.806 91.161 46.711 91.341 46.52C91.532 46.328 91.734 45.94 91.948 45.356L92.218 44.598H92.538L92.116 45.828C91.959 46.3 91.756 46.66 91.51 46.908C91.2982 47.1393 91.0312 47.313 90.734 47.413C90.4758 47.5121 90.2017 47.5636 89.925 47.565C89.633 47.565 89.38 47.514 89.167 47.413C88.964 47.323 88.807 47.193 88.695 47.025C88.549 46.812 88.487 46.536 88.509 46.199C88.532 45.862 88.622 45.458 88.779 44.986L90.313 40.351C90.369 40.171 90.414 39.991 90.448 39.811C90.4834 39.6549 90.4775 39.4922 90.431 39.339C90.386 39.204 90.268 39.137 90.077 39.137C89.841 39.137 89.582 39.272 89.302 39.541C89.021 39.8 88.728 40.165 88.425 40.637C88.0887 41.1688 87.7848 41.7205 87.515 42.289C87.212 42.919 86.919 43.603 86.638 44.345C86.368 45.075 86.128 45.834 85.914 46.621L85.924 46.566L85.728 47.328Z" fill="#2F2352"/>
<path fill-rule="evenodd" clip-rule="evenodd" d="M79.43 44.7241L79.36 44.9861C79.2539 45.3668 79.1803 45.7559 79.14 46.1491C79.106 46.5091 79.162 46.8121 79.308 47.0591C79.533 47.3961 79.915 47.5651 80.455 47.5651C80.7432 47.563 81.028 47.5021 81.2918 47.386C81.5555 47.2699 81.7928 47.1012 81.989 46.8901C82.225 46.6321 82.421 46.2721 82.579 45.8121L82.999 44.5821H82.679L82.427 45.3401C82.224 45.9241 82.027 46.3121 81.837 46.5031C81.646 46.6931 81.46 46.7891 81.281 46.7891C81.134 46.7891 81.039 46.7441 80.994 46.6541C80.9589 46.5396 80.9473 46.4191 80.96 46.3001C80.983 46.1541 81.016 46.0141 81.062 45.8791L83.236 38.3951C82.8979 38.4759 82.5543 38.5324 82.208 38.5641C81.859 38.5981 81.483 38.6201 81.078 38.6311L80.834 39.5331C80.8236 39.3041 80.757 39.0812 80.64 38.8841C80.5523 38.7306 80.4244 38.604 80.27 38.5178C80.1157 38.4316 79.9407 38.3892 79.764 38.3951C79.269 38.3951 78.774 38.5471 78.28 38.8501C77.786 39.1541 77.32 39.5581 76.881 40.0641C76.427 40.5807 76.0313 41.1458 75.701 41.7491C75.3696 42.3539 75.104 42.9925 74.909 43.6541C74.7252 44.2493 74.6288 44.8681 74.623 45.4911C74.623 46.1211 74.769 46.6261 75.061 47.0081C75.353 47.3791 75.803 47.5641 76.409 47.5641C76.836 47.5641 77.247 47.4411 77.639 47.1941C78.044 46.9461 78.427 46.5361 78.786 45.9641C79.009 45.6191 79.223 45.2061 79.43 44.7241ZM77.977 46.4351C77.719 46.6711 77.488 46.7891 77.286 46.7891C77.117 46.7891 76.988 46.7051 76.898 46.5361C76.82 46.3561 76.78 46.0591 76.78 45.6431C76.78 45.0471 76.848 44.4351 76.983 43.8061C77.117 43.1761 77.297 42.5701 77.522 41.9861C77.758 41.4011 78.016 40.8791 78.297 40.4181C78.578 39.9581 78.859 39.5921 79.14 39.3221C79.432 39.0521 79.707 38.9181 79.966 38.9181C80.236 38.9181 80.426 39.0531 80.539 39.3221C80.651 39.5661 80.679 39.8931 80.626 40.3021L80.128 42.1441L80.185 41.8511C80.005 42.5701 79.792 43.2331 79.545 43.8401C79.297 44.4461 79.039 44.9691 78.769 45.4071C78.499 45.8451 78.235 46.1881 77.977 46.4351Z" fill="#2F2352"/>
<path d="M70.115 47.328H68.042L70.064 40.064C70.165 39.727 70.199 39.491 70.165 39.356C70.132 39.221 70.031 39.154 69.862 39.154C69.649 39.154 69.452 39.261 69.272 39.474C69.092 39.687 68.907 40.064 68.716 40.604L68.429 41.395H68.109L68.547 40.131C68.705 39.681 68.901 39.334 69.137 39.086C69.373 38.828 69.632 38.648 69.913 38.547C70.193 38.446 70.48 38.395 70.773 38.395C71.132 38.395 71.396 38.468 71.564 38.615C71.7427 38.7585 71.8629 38.9622 71.902 39.188C71.958 39.424 71.969 39.682 71.935 39.963C71.913 40.233 71.868 40.497 71.8 40.755L71.53 41.812L71.557 41.739L71.598 41.632C71.913 40.834 72.216 40.199 72.508 39.727C72.812 39.244 73.132 38.901 73.469 38.699C73.7992 38.4983 74.1786 38.3931 74.565 38.395C74.969 38.395 75.278 38.513 75.492 38.749C75.716 38.985 75.829 39.277 75.829 39.626C75.829 39.906 75.761 40.171 75.626 40.418C75.4952 40.6498 75.3103 40.8464 75.087 40.991C74.8642 41.1284 74.6066 41.1985 74.345 41.193C74.065 41.193 73.84 41.12 73.671 40.974C73.514 40.828 73.435 40.614 73.435 40.334C73.435 40.086 73.491 39.862 73.604 39.659C73.716 39.457 73.862 39.289 74.042 39.154C74.222 39.008 74.418 38.907 74.632 38.85C74.6083 38.827 74.5795 38.8099 74.548 38.8C74.5256 38.7925 74.5025 38.7874 74.479 38.785C74.4624 38.7835 74.4457 38.7828 74.429 38.783C74.183 38.783 73.929 38.873 73.671 39.053C73.413 39.221 73.143 39.497 72.862 39.879C72.582 40.261 72.295 40.766 72.002 41.395C71.6725 42.1388 71.3802 42.8984 71.126 43.671C70.999 44.044 70.871 44.447 70.743 44.878L70.115 47.328Z" fill="#2F2352"/>
<path fill-rule="evenodd" clip-rule="evenodd" d="M66.962 36.019C66.4 35.614 65.501 35.412 64.265 35.412C63.883 35.412 63.501 35.418 63.118 35.429C62.748 35.44 62.321 35.446 61.838 35.446H60.995C60.691 35.434 60.405 35.429 60.135 35.429C59.9103 35.4191 59.6856 35.4078 59.461 35.395L59.377 35.732C59.815 35.732 60.113 35.788 60.27 35.901C60.439 36.001 60.517 36.159 60.506 36.373C60.4833 36.6459 60.4382 36.9165 60.371 37.182L58.146 45.542C58.046 45.946 57.933 46.25 57.809 46.452C57.697 46.6452 57.5169 46.7897 57.304 46.857C57.09 46.924 56.792 46.969 56.41 46.991L56.343 47.328C56.533 47.318 56.764 47.312 57.033 47.312C57.303 47.3 57.59 47.295 57.893 47.295C58.7413 47.2692 59.5902 47.2749 60.438 47.312C60.899 47.322 61.321 47.329 61.703 47.329C62.433 47.329 63.124 47.255 63.776 47.109C64.377 46.9727 64.9518 46.7397 65.478 46.419C65.9488 46.1386 66.3472 45.7515 66.641 45.289C66.933 44.839 67.079 44.312 67.079 43.705C67.079 43.019 66.799 42.429 66.237 41.935C65.687 41.44 64.815 41.148 63.624 41.058C64.3671 40.9513 65.0891 40.7297 65.764 40.401C66.394 40.075 66.888 39.676 67.248 39.204C67.6104 38.7559 67.8068 38.1963 67.804 37.62C67.804 36.946 67.525 36.412 66.962 36.019ZM61.582 41.278L60.455 45.542C60.388 45.822 60.343 46.07 60.321 46.283C60.309 46.497 60.365 46.66 60.489 46.773C60.613 46.885 60.843 46.941 61.18 46.941C61.978 46.941 62.63 46.789 63.135 46.486C63.6298 46.195 64.024 45.76 64.265 45.239C64.512 44.699 64.635 44.092 64.635 43.419C64.635 43.002 64.562 42.637 64.416 42.323C64.2875 42.004 64.0563 41.737 63.759 41.564C63.456 41.373 63.051 41.278 62.545 41.278H61.582ZM61.658 40.991H62.428C63.068 40.991 63.613 40.828 64.062 40.502C64.523 40.165 64.872 39.727 65.108 39.188C65.3538 38.654 65.48 38.0728 65.478 37.485C65.478 36.923 65.366 36.491 65.141 36.187C64.928 35.884 64.551 35.732 64.011 35.732C63.619 35.732 63.338 35.811 63.169 35.968C63.001 36.114 62.855 36.434 62.731 36.928L61.658 40.991Z" fill="#2F2352"/>
</g>
<defs>
<linearGradient id="paint0_linear_138_690" x1="800" y1="24.0002" x2="919" y2="24.0002" gradientUnits="userSpaceOnUse">
<stop stop-color="#64C2DB"/>
<stop offset="0.307" stop-color="#7476ED"/>
<stop offset="0.604" stop-color="#C994DF"/>
<stop offset="1" stop-color="#E56F8C"/>
</linearGradient>
<clipPath id="clip0_138_690">
<rect width="84" height="40" fill="white" transform="translate(214 8)"/>
</clipPath>
<clipPath id="clip1_138_690">
<rect width="78" height="32" fill="white" transform="translate(338 12)"/>
</clipPath>
<clipPath id="clip2_138_690">
<rect width="155" height="40" fill="white" transform="translate(456 8)"/>
</clipPath>
<clipPath id="clip3_138_690">
<rect width="125" height="40" fill="white" transform="translate(800 8)"/>
</clipPath>
<clipPath id="clip4_138_690">
<rect width="174" height="39" fill="white" transform="translate(0 9)"/>
</clipPath>
</defs>
</svg>
