<svg width="1680" height="826" viewBox="0 0 1680 826" fill="none" xmlns="http://www.w3.org/2000/svg">
<path d="M-6.50739 45.6058C60.7926 73.1445 129.393 112.619 174.293 173.233C219.293 233.847 240.593 315.672 195.693 368.521C150.893 421.441 39.8926 445.457 -53.4074 443.515C-146.707 441.574 -222.407 413.676 -294.407 389.804C-366.407 366.004 -434.607 346.303 -497.407 305.965C-560.107 265.7 -617.307 204.798 -622.607 137.282C-627.807 69.837 -581.007 -4.15083 -502.907 -30.3234C-424.807 -56.496 -315.307 -34.7814 -227.507 -16.1586C-139.807 2.4642 -73.8074 18.0671 -6.50739 45.6058Z" fill="#C7E7A4"/>
<path d="M-17.0122 296.842C22.4185 345.339 55.2025 369.371 108.783 397.448C162.265 425.597 236.444 457.792 267.657 502.857C298.77 547.993 286.917 605.999 240.308 642.211C193.699 678.423 112.433 692.769 43.2569 727.39C-25.9197 761.938 -83.1063 816.76 -145.403 822.771C-207.701 828.709 -275.108 785.981 -335.283 747.696C-395.459 709.34 -448.403 675.572 -483.472 633.759C-518.64 591.947 -535.933 542.234 -526.944 496.335C-517.955 450.436 -482.582 408.495 -439.208 377.693C-395.934 346.892 -344.657 327.301 -294.839 283.303C-245.02 239.304 -196.759 170.824 -149.54 173.138C-102.421 175.38 -56.3432 248.344 -17.0122 296.842Z" fill="#44321D"/>
<path d="M1693.64 50.3347C1743.87 52.1938 1801.09 61.6664 1812.52 82.6774C1823.99 103.688 1789.67 136.179 1790.77 169.053C1791.83 201.897 1828.26 235.096 1810.68 250.175C1793.14 265.255 1721.65 262.215 1670.32 277.147C1619.04 292.05 1587.98 324.953 1554.76 327.048C1521.54 329.144 1486.22 300.401 1460.58 277.177C1434.89 253.952 1418.99 236.217 1394.98 219.072C1370.97 201.897 1338.91 185.313 1338.02 168.403C1337.17 151.524 1367.5 134.379 1385.08 110.977C1402.67 87.6056 1407.56 58.0072 1434.04 48.4756C1460.58 38.9734 1508.75 49.5379 1554.45 51.9282C1600.2 54.289 1643.42 48.5051 1693.64 50.3347Z" fill="#FFDC89"/>
<path d="M1968.13 264.405C2017.03 301.147 2057.03 338.321 2070.53 380.671C2084.03 423.094 2071.13 470.765 2042.23 516.567C2013.43 562.441 1968.63 606.446 1897.13 646.352C1825.53 686.329 1727.13 722.137 1667.63 698.841C1608.23 675.544 1587.63 593.215 1528.13 524.405C1468.63 455.594 1370.23 400.444 1379.63 358.381C1389.03 316.318 1506.23 287.342 1594.93 255.704C1683.53 224.067 1743.53 189.626 1802.43 190.561C1861.43 191.495 1919.23 227.734 1968.13 264.405Z" fill="#06E6DB"/>
</svg>
