<svg width="413" height="63" viewBox="0 0 413 63" fill="none" xmlns="http://www.w3.org/2000/svg">
<circle cx="32" cy="20.2" r="20" fill="#6A4AAD"/>
<path d="M33.592 15.176V24.444L32.724 25.2H31.884V17.122L30.26 18.494L29.448 17.472L32.164 15.176H33.592Z" fill="white"/>
<circle cx="360" cy="20.2" r="20" fill="#6A4AAD"/>
<circle cx="360" cy="20.2" r="20.1" stroke="#6A4AAD" stroke-opacity="0.35" stroke-width="0.2"/>
<path d="M357.26 15.33C357.867 15.1433 358.361 15.05 358.744 15.05C359.677 15.05 360.424 15.2926 360.984 15.778C361.516 16.2446 361.782 16.87 361.782 17.654C361.782 18.97 361.199 19.7586 360.032 20.02C360.704 20.132 361.231 20.4166 361.614 20.874C362.006 21.3313 362.202 21.896 362.202 22.568C362.202 23.5386 361.824 24.276 361.068 24.78C360.489 25.1626 359.766 25.354 358.898 25.354C358.338 25.354 357.778 25.2746 357.218 25.116L356.77 24.556V24.122C357.414 24.262 357.979 24.332 358.464 24.332C360.153 24.332 360.998 23.7626 360.998 22.624C360.998 22.008 360.741 21.49 360.228 21.07C359.939 20.8366 359.631 20.678 359.304 20.594C358.987 20.5006 358.515 20.4493 357.89 20.44V19.53H359.08C359.528 19.53 359.892 19.3853 360.172 19.096C360.461 18.7973 360.606 18.4146 360.606 17.948C360.606 17.3973 360.424 16.9633 360.06 16.646C359.696 16.3193 359.201 16.156 358.576 16.156C358.268 16.156 357.829 16.2166 357.26 16.338V15.33Z" fill="white"/>
<circle cx="196" cy="20.2" r="20" fill="#6A4AAD"/>
<circle cx="196" cy="20.2" r="20.1" stroke="#6A4AAD" stroke-opacity="0.35" stroke-width="0.2"/>
<path d="M192.868 15.932C193.755 15.3533 194.651 15.064 195.556 15.064C196.461 15.064 197.152 15.33 197.628 15.862C198.048 16.3193 198.258 16.9306 198.258 17.696C198.258 18.2653 198.123 18.8253 197.852 19.376C197.581 19.9266 197.11 20.6126 196.438 21.434C195.682 22.3486 195.262 22.848 195.178 22.932L194.352 23.772H198.454V24.332L197.754 25.2H192.448V23.772L193.484 22.708L194.492 21.56C195.267 20.7013 195.766 20.1086 195.99 19.782C196.466 19.1006 196.704 18.4986 196.704 17.976C196.704 17.5653 196.569 17.234 196.298 16.982C196.037 16.7206 195.691 16.59 195.262 16.59C194.758 16.59 194.245 16.772 193.722 17.136L192.868 15.932Z" fill="white"/>
<rect x="52" y="19.2" width="124" height="2" fill="#6A4AAD"/>
<rect x="216" y="19.2" width="124" height="2" fill="#6A4AAD"/>
<path d="M1.2 59.2V47.744H6.304C7.46667 47.744 8.368 48.0266 9.008 48.592C9.70133 49.1893 10.048 49.9146 10.048 50.768C10.048 51.2586 9.92533 51.6853 9.68 52.048C9.44533 52.4 9.04533 52.7573 8.48 53.12C9.73867 53.8666 10.368 54.7946 10.368 55.904C10.368 56.9066 9.98933 57.728 9.232 58.368C8.57067 58.9226 7.61067 59.2 6.352 59.2H1.2ZM3.552 49.712V52.304H6.128C7.22667 52.304 7.776 51.872 7.776 51.008C7.776 50.144 7.22667 49.712 6.128 49.712H3.552ZM3.552 54.272V57.232H6.368C7.53067 57.232 8.112 56.7413 8.112 55.76C8.112 54.768 7.53067 54.272 6.368 54.272H3.552ZM15.8923 50.544C17.2896 50.544 18.3616 50.992 19.1083 51.888C19.7589 52.656 20.0843 53.68 20.0843 54.96C20.0843 56.432 19.6629 57.5626 18.8203 58.352C18.0843 59.0346 17.1083 59.376 15.8923 59.376C14.4949 59.376 13.4229 58.9333 12.6763 58.048C12.0256 57.2693 11.7003 56.24 11.7003 54.96C11.7003 53.4986 12.1216 52.3733 12.9643 51.584C13.7003 50.8906 14.6763 50.544 15.8923 50.544ZM15.8923 52.32C15.2949 52.32 14.8149 52.5653 14.4523 53.056C14.0896 53.536 13.9083 54.1706 13.9083 54.96C13.9083 55.8133 14.1109 56.4853 14.5163 56.976C14.8789 57.392 15.3376 57.6 15.8923 57.6C16.4896 57.6 16.9696 57.36 17.3323 56.88C17.7056 56.3893 17.8923 55.7493 17.8923 54.96C17.8923 54.1173 17.6843 53.4506 17.2683 52.96C16.9056 52.5333 16.4469 52.32 15.8923 52.32ZM25.4548 50.544C26.8521 50.544 27.9241 50.992 28.6708 51.888C29.3214 52.656 29.6468 53.68 29.6468 54.96C29.6468 56.432 29.2254 57.5626 28.3828 58.352C27.6468 59.0346 26.6708 59.376 25.4548 59.376C24.0574 59.376 22.9854 58.9333 22.2388 58.048C21.5881 57.2693 21.2628 56.24 21.2628 54.96C21.2628 53.4986 21.6841 52.3733 22.5268 51.584C23.2628 50.8906 24.2388 50.544 25.4548 50.544ZM25.4548 52.32C24.8574 52.32 24.3774 52.5653 24.0148 53.056C23.6521 53.536 23.4708 54.1706 23.4708 54.96C23.4708 55.8133 23.6734 56.4853 24.0788 56.976C24.4414 57.392 24.9001 57.6 25.4548 57.6C26.0521 57.6 26.5321 57.36 26.8948 56.88C27.2681 56.3893 27.4548 55.7493 27.4548 54.96C27.4548 54.1173 27.2468 53.4506 26.8308 52.96C26.4681 52.5333 26.0094 52.32 25.4548 52.32ZM33.4813 54.016L36.2493 50.72H38.7613L35.8653 53.92L38.9533 59.2H36.3773L34.3453 55.456L33.4813 56.416V59.2H31.2733V47.744H33.4813V54.016ZM42.3101 50.72V59.2H40.1021V50.72H42.3101ZM41.1901 47.808C41.4781 47.808 41.7181 47.9093 41.9101 48.112C42.1128 48.3146 42.2141 48.56 42.2141 48.848C42.2141 49.136 42.1128 49.3813 41.9101 49.584C41.7181 49.776 41.4781 49.872 41.1901 49.872C40.9021 49.872 40.6568 49.776 40.4541 49.584C40.2515 49.3813 40.1501 49.136 40.1501 48.848C40.1501 48.56 40.2515 48.3146 40.4541 48.112C40.6568 47.9093 40.9021 47.808 41.1901 47.808ZM44.4451 50.72H46.6531V51.92C47.2505 51.0026 48.0931 50.544 49.1811 50.544C50.1518 50.544 50.8878 50.832 51.3891 51.408C51.8158 51.92 52.0291 52.6133 52.0291 53.488V59.2H49.8371V53.936C49.8371 52.9226 49.3625 52.416 48.4131 52.416C47.8798 52.416 47.4531 52.5706 47.1331 52.88C46.8131 53.1786 46.6531 53.5786 46.6531 54.08V59.2H44.4451V50.72ZM59.4305 50.72H61.5265V59.12C61.5265 60.432 61.1158 61.3706 60.2945 61.936C59.6012 62.3946 58.6518 62.624 57.4465 62.624C56.1878 62.624 55.2278 62.352 54.5665 61.808C54.0225 61.3706 53.7398 60.8426 53.7185 60.224H55.9905C56.1718 60.8853 56.6945 61.216 57.5585 61.216C58.1025 61.216 58.5612 61.0453 58.9345 60.704C59.2652 60.4053 59.4305 59.9413 59.4305 59.312V58.048C59.0252 58.5493 58.6465 58.896 58.2945 59.088C57.9425 59.28 57.5158 59.376 57.0145 59.376C55.9158 59.376 55.0465 58.928 54.4065 58.032C53.8412 57.264 53.5585 56.288 53.5585 55.104C53.5585 53.7066 53.9372 52.5653 54.6945 51.68C55.3558 50.9226 56.1558 50.544 57.0945 50.544C58.0118 50.544 58.7905 50.9866 59.4305 51.872V50.72ZM57.5425 52.384C57.0092 52.384 56.5772 52.6293 56.2465 53.12C55.9265 53.6106 55.7665 54.2506 55.7665 55.04C55.7665 55.7973 55.9265 56.4053 56.2465 56.864C56.5772 57.3226 57.0092 57.552 57.5425 57.552C58.0972 57.552 58.5558 57.3173 58.9185 56.848C59.2598 56.4106 59.4305 55.8026 59.4305 55.024C59.4305 54.1813 59.2332 53.5146 58.8385 53.024C58.4972 52.5973 58.0652 52.384 57.5425 52.384Z" fill="#6A4AAD"/>
<path d="M167.552 55.12V59.2H165.2V47.744H170.256C171.536 47.744 172.491 48.0906 173.12 48.784C173.675 49.392 173.952 50.2293 173.952 51.296C173.952 52.544 173.6 53.5146 172.896 54.208C172.277 54.816 171.477 55.12 170.496 55.12H167.552ZM167.552 53.152H169.744C170.981 53.152 171.6 52.5813 171.6 51.44C171.6 50.288 170.981 49.712 169.744 49.712H167.552V53.152ZM182.74 58.64V59.2H180.34C180.18 58.9973 180.095 58.7093 180.084 58.336C179.497 59.0293 178.644 59.376 177.524 59.376C176.703 59.376 176.041 59.1253 175.54 58.624C175.135 58.2186 174.932 57.6586 174.932 56.944C174.932 55.8773 175.359 55.12 176.212 54.672C176.575 54.48 177.295 54.288 178.372 54.096L180.1 53.776L180.084 53.168C180.073 52.6026 179.647 52.32 178.804 52.32C178.26 52.32 177.876 52.4053 177.652 52.576C177.439 52.736 177.305 53.0346 177.252 53.472H175.14C175.268 51.52 176.473 50.544 178.756 50.544C180.015 50.544 180.921 50.768 181.476 51.216C181.977 51.6426 182.228 52.288 182.228 53.152V57.888C182.228 58.272 182.399 58.5226 182.74 58.64ZM180.1 55.104L178.484 55.472C178.025 55.5786 177.684 55.7333 177.46 55.936C177.247 56.1386 177.14 56.3893 177.14 56.688C177.14 57.296 177.535 57.6 178.324 57.6C179.465 57.6 180.052 56.976 180.084 55.728L180.1 55.104ZM189.426 50.72H191.682L188.194 60.736C187.949 61.4506 187.624 61.9413 187.218 62.208C186.813 62.4853 186.21 62.624 185.41 62.624C184.674 62.624 184.162 62.528 183.874 62.336L184.21 60.848C184.594 60.944 184.914 60.992 185.17 60.992C185.544 60.992 185.864 60.864 186.13 60.608C186.397 60.3626 186.53 60.0693 186.53 59.728V59.552L183.378 50.72H185.794L187.682 56.896L189.426 50.72ZM192.961 50.72H195.153V51.744C195.803 50.944 196.577 50.544 197.473 50.544C198.571 50.544 199.339 50.96 199.777 51.792C200.417 50.96 201.243 50.544 202.257 50.544C203.11 50.544 203.771 50.7786 204.241 51.248C204.721 51.7066 204.961 52.3466 204.961 53.168V59.2H202.769V53.52C202.769 52.784 202.369 52.416 201.569 52.416C201.099 52.416 200.731 52.5653 200.465 52.864C200.198 53.152 200.065 53.5573 200.065 54.08V59.2H197.857V53.52C197.857 52.784 197.462 52.416 196.673 52.416C196.203 52.416 195.835 52.5653 195.569 52.864C195.302 53.152 195.169 53.5573 195.169 54.08V59.2H192.961V50.72ZM214.368 55.536H208.672C208.704 56.2186 208.811 56.704 208.992 56.992C209.301 57.4613 209.787 57.696 210.448 57.696C211.269 57.696 211.819 57.3546 212.096 56.672H214.272C214.027 57.504 213.547 58.1653 212.832 58.656C212.128 59.136 211.301 59.376 210.352 59.376C209.061 59.376 208.069 58.944 207.376 58.08C206.768 57.3226 206.464 56.3253 206.464 55.088C206.464 53.584 206.859 52.4213 207.648 51.6C208.341 50.896 209.253 50.544 210.384 50.544C211.248 50.544 212.005 50.7573 212.656 51.184C213.307 51.6106 213.771 52.208 214.048 52.976C214.272 53.5733 214.384 54.2933 214.384 55.136C214.384 55.2426 214.379 55.376 214.368 55.536ZM212.08 54.08C211.973 52.8426 211.403 52.224 210.368 52.224C209.397 52.224 208.843 52.8426 208.704 54.08H212.08ZM215.93 50.72H218.138V51.92C218.735 51.0026 219.578 50.544 220.666 50.544C221.636 50.544 222.372 50.832 222.874 51.408C223.3 51.92 223.514 52.6133 223.514 53.488V59.2H221.322V53.936C221.322 52.9226 220.847 52.416 219.898 52.416C219.364 52.416 218.938 52.5706 218.618 52.88C218.298 53.1786 218.138 53.5786 218.138 54.08V59.2H215.93V50.72ZM229.555 50.72V52.176H228.067V56.896C228.067 57.2053 228.12 57.4186 228.227 57.536C228.344 57.6533 228.552 57.712 228.851 57.712C229.096 57.712 229.411 57.616 229.795 57.424C229.827 57.4026 229.854 57.3866 229.875 57.376L230.131 58.88C229.459 59.2106 228.755 59.376 228.019 59.376C226.579 59.376 225.859 58.7146 225.859 57.392V52.176H224.771V50.72H225.859V49.312L228.067 48.048V50.72H229.555Z" fill="#6A4AAD"/>
<path d="M324.704 51.568H322.464C322.155 50.2453 321.339 49.584 320.016 49.584C319.024 49.584 318.261 49.9786 317.728 50.768C317.269 51.4613 317.04 52.384 317.04 53.536C317.04 54.8373 317.328 55.8293 317.904 56.512C318.405 57.0986 319.083 57.392 319.936 57.392C320.672 57.392 321.259 57.2 321.696 56.816C322.133 56.432 322.389 55.8826 322.464 55.168H324.752C324.677 56.5546 324.144 57.6266 323.152 58.384C322.299 59.0453 321.205 59.376 319.872 59.376C318.165 59.376 316.843 58.7786 315.904 57.584C315.093 56.5493 314.688 55.184 314.688 53.488C314.688 51.5466 315.221 50.0426 316.288 48.976C317.216 48.0373 318.427 47.568 319.92 47.568C321.691 47.568 323.029 48.16 323.936 49.344C324.384 49.9306 324.64 50.672 324.704 51.568ZM330.08 50.544C331.477 50.544 332.549 50.992 333.296 51.888C333.946 52.656 334.272 53.68 334.272 54.96C334.272 56.432 333.85 57.5626 333.008 58.352C332.272 59.0346 331.296 59.376 330.08 59.376C328.682 59.376 327.61 58.9333 326.864 58.048C326.213 57.2693 325.888 56.24 325.888 54.96C325.888 53.4986 326.309 52.3733 327.152 51.584C327.888 50.8906 328.864 50.544 330.08 50.544ZM330.08 52.32C329.482 52.32 329.002 52.5653 328.64 53.056C328.277 53.536 328.096 54.1706 328.096 54.96C328.096 55.8133 328.298 56.4853 328.704 56.976C329.066 57.392 329.525 57.6 330.08 57.6C330.677 57.6 331.157 57.36 331.52 56.88C331.893 56.3893 332.08 55.7493 332.08 54.96C332.08 54.1173 331.872 53.4506 331.456 52.96C331.093 52.5333 330.634 52.32 330.08 52.32ZM335.898 50.72H338.106V51.92C338.704 51.0026 339.546 50.544 340.634 50.544C341.605 50.544 342.341 50.832 342.842 51.408C343.269 51.92 343.482 52.6133 343.482 53.488V59.2H341.29V53.936C341.29 52.9226 340.816 52.416 339.866 52.416C339.333 52.416 338.906 52.5706 338.586 52.88C338.266 53.1786 338.106 53.5786 338.106 54.08V59.2H335.898V50.72ZM349.428 50.896V52.352H348.148V59.2H345.94V52.352H344.74V50.896H345.94V49.872C345.94 48.4533 346.654 47.744 348.084 47.744C348.425 47.744 348.852 47.76 349.364 47.792V49.44C349.15 49.408 348.942 49.392 348.74 49.392C348.345 49.392 348.148 49.616 348.148 50.064V50.896H349.428ZM352.982 50.72V59.2H350.774V50.72H352.982ZM351.862 47.808C352.15 47.808 352.39 47.9093 352.582 48.112C352.785 48.3146 352.886 48.56 352.886 48.848C352.886 49.136 352.785 49.3813 352.582 49.584C352.39 49.776 352.15 49.872 351.862 49.872C351.574 49.872 351.329 49.776 351.126 49.584C350.923 49.3813 350.822 49.136 350.822 48.848C350.822 48.56 350.923 48.3146 351.126 48.112C351.329 47.9093 351.574 47.808 351.862 47.808ZM355.117 50.72H357.325V52.336C357.602 51.1413 358.392 50.544 359.693 50.544C359.896 50.544 360.04 50.544 360.125 50.544L360.141 52.72C359.874 52.6666 359.597 52.64 359.309 52.64C358.584 52.64 358.082 52.7733 357.805 53.04C357.485 53.3386 357.325 53.8773 357.325 54.656V59.2H355.117V50.72ZM361.226 50.72H363.418V51.744C364.069 50.944 364.842 50.544 365.738 50.544C366.837 50.544 367.605 50.96 368.042 51.792C368.682 50.96 369.509 50.544 370.522 50.544C371.376 50.544 372.037 50.7786 372.506 51.248C372.986 51.7066 373.226 52.3466 373.226 53.168V59.2H371.034V53.52C371.034 52.784 370.634 52.416 369.834 52.416C369.365 52.416 368.997 52.5653 368.73 52.864C368.464 53.152 368.33 53.5573 368.33 54.08V59.2H366.122V53.52C366.122 52.784 365.728 52.416 364.938 52.416C364.469 52.416 364.101 52.5653 363.834 52.864C363.568 53.152 363.434 53.5573 363.434 54.08V59.2H361.226V50.72ZM382.506 58.64V59.2H380.106C379.946 58.9973 379.86 58.7093 379.85 58.336C379.263 59.0293 378.41 59.376 377.29 59.376C376.468 59.376 375.807 59.1253 375.306 58.624C374.9 58.2186 374.698 57.6586 374.698 56.944C374.698 55.8773 375.124 55.12 375.978 54.672C376.34 54.48 377.06 54.288 378.138 54.096L379.866 53.776L379.85 53.168C379.839 52.6026 379.412 52.32 378.57 52.32C378.026 52.32 377.642 52.4053 377.418 52.576C377.204 52.736 377.071 53.0346 377.018 53.472H374.906C375.034 51.52 376.239 50.544 378.522 50.544C379.78 50.544 380.687 50.768 381.242 51.216C381.743 51.6426 381.994 52.288 381.994 53.152V57.888C381.994 58.272 382.164 58.5226 382.506 58.64ZM379.866 55.104L378.25 55.472C377.791 55.5786 377.45 55.7333 377.226 55.936C377.012 56.1386 376.906 56.3893 376.906 56.688C376.906 57.296 377.3 57.6 378.09 57.6C379.231 57.6 379.818 56.976 379.85 55.728L379.866 55.104ZM388.008 50.72V52.176H386.52V56.896C386.52 57.2053 386.573 57.4186 386.68 57.536C386.797 57.6533 387.005 57.712 387.304 57.712C387.549 57.712 387.864 57.616 388.248 57.424C388.28 57.4026 388.307 57.3866 388.328 57.376L388.584 58.88C387.912 59.2106 387.208 59.376 386.472 59.376C385.032 59.376 384.312 58.7146 384.312 57.392V52.176H383.224V50.72H384.312V49.312L386.52 48.048V50.72H388.008ZM392.248 50.72V59.2H390.04V50.72H392.248ZM391.128 47.808C391.416 47.808 391.656 47.9093 391.848 48.112C392.05 48.3146 392.152 48.56 392.152 48.848C392.152 49.136 392.05 49.3813 391.848 49.584C391.656 49.776 391.416 49.872 391.128 49.872C390.84 49.872 390.594 49.776 390.392 49.584C390.189 49.3813 390.088 49.136 390.088 48.848C390.088 48.56 390.189 48.3146 390.392 48.112C390.594 47.9093 390.84 47.808 391.128 47.808ZM398.127 50.544C399.524 50.544 400.596 50.992 401.343 51.888C401.993 52.656 402.319 53.68 402.319 54.96C402.319 56.432 401.897 57.5626 401.055 58.352C400.319 59.0346 399.343 59.376 398.127 59.376C396.729 59.376 395.657 58.9333 394.911 58.048C394.26 57.2693 393.935 56.24 393.935 54.96C393.935 53.4986 394.356 52.3733 395.199 51.584C395.935 50.8906 396.911 50.544 398.127 50.544ZM398.127 52.32C397.529 52.32 397.049 52.5653 396.687 53.056C396.324 53.536 396.143 54.1706 396.143 54.96C396.143 55.8133 396.345 56.4853 396.751 56.976C397.113 57.392 397.572 57.6 398.127 57.6C398.724 57.6 399.204 57.36 399.567 56.88C399.94 56.3893 400.127 55.7493 400.127 54.96C400.127 54.1173 399.919 53.4506 399.503 52.96C399.14 52.5333 398.681 52.32 398.127 52.32ZM403.945 50.72H406.153V51.92C406.75 51.0026 407.593 50.544 408.681 50.544C409.652 50.544 410.388 50.832 410.889 51.408C411.316 51.92 411.529 52.6133 411.529 53.488V59.2H409.337V53.936C409.337 52.9226 408.862 52.416 407.913 52.416C407.38 52.416 406.953 52.5706 406.633 52.88C406.313 53.1786 406.153 53.5786 406.153 54.08V59.2H403.945V50.72Z" fill="#6A4AAD"/>
</svg>
