<svg width="406" height="63" viewBox="0 0 406 63" fill="none" xmlns="http://www.w3.org/2000/svg">
<circle cx="32" cy="20.2" r="20" fill="#6A4AAD"/>
<path d="M33.004 15.176V24.668L32.402 25.2H31.814V16.604L30.078 18.06L29.448 17.276L31.94 15.176H33.004Z" fill="white"/>
<circle cx="360" cy="20.2" r="20" fill="#F9FAFB"/>
<circle cx="360" cy="20.2" r="20.1" stroke="#6A4AAD" stroke-opacity="0.35" stroke-width="0.2"/>
<path d="M357.26 15.33C357.867 15.1433 358.361 15.05 358.744 15.05C359.677 15.05 360.424 15.2926 360.984 15.778C361.516 16.2446 361.782 16.87 361.782 17.654C361.782 18.97 361.199 19.7586 360.032 20.02C360.704 20.132 361.231 20.4166 361.614 20.874C362.006 21.3313 362.202 21.896 362.202 22.568C362.202 23.5386 361.824 24.276 361.068 24.78C360.489 25.1626 359.766 25.354 358.898 25.354C358.338 25.354 357.778 25.2746 357.218 25.116L356.77 24.556V24.122C357.414 24.262 357.979 24.332 358.464 24.332C360.153 24.332 360.998 23.7626 360.998 22.624C360.998 22.008 360.741 21.49 360.228 21.07C359.939 20.8366 359.631 20.678 359.304 20.594C358.987 20.5006 358.515 20.4493 357.89 20.44V19.53H359.08C359.528 19.53 359.892 19.3853 360.172 19.096C360.461 18.7973 360.606 18.4146 360.606 17.948C360.606 17.3973 360.424 16.9633 360.06 16.646C359.696 16.3193 359.201 16.156 358.576 16.156C358.268 16.156 357.829 16.2166 357.26 16.338V15.33Z" fill="#6A4AAD"/>
<circle cx="196" cy="20.2" r="20" fill="#F9FAFB"/>
<circle cx="196" cy="20.2" r="20.1" stroke="#6A4AAD" stroke-opacity="0.35" stroke-width="0.2"/>
<path d="M192.924 15.904C193.801 15.3346 194.688 15.05 195.584 15.05C196.461 15.05 197.119 15.3066 197.558 15.82C197.941 16.268 198.132 16.8653 198.132 17.612C198.132 18.2 197.983 18.774 197.684 19.334C197.413 19.81 196.937 20.454 196.256 21.266L194.282 23.506L193.708 24.206H198.3V24.598L197.81 25.2H192.448V24.192L193.512 22.918L195.668 20.412C196.097 19.8986 196.401 19.4693 196.578 19.124C196.821 18.6573 196.942 18.2046 196.942 17.766C196.942 17.2806 196.797 16.8886 196.508 16.59C196.219 16.2913 195.831 16.142 195.346 16.142C194.777 16.142 194.184 16.3613 193.568 16.8L192.924 15.904Z" fill="#6A4AAD"/>
<rect x="52" y="19.2" width="124" height="2" fill="#6A4AAD"/>
<rect x="216" y="19.2" width="124" height="2" fill="#D9D9D9"/>
<path d="M1.2 59.2V47.744H6.304C7.46667 47.744 8.368 48.0266 9.008 48.592C9.70133 49.1893 10.048 49.9146 10.048 50.768C10.048 51.2586 9.92533 51.6853 9.68 52.048C9.44533 52.4 9.04533 52.7573 8.48 53.12C9.73867 53.8666 10.368 54.7946 10.368 55.904C10.368 56.9066 9.98933 57.728 9.232 58.368C8.57067 58.9226 7.61067 59.2 6.352 59.2H1.2ZM3.552 49.712V52.304H6.128C7.22667 52.304 7.776 51.872 7.776 51.008C7.776 50.144 7.22667 49.712 6.128 49.712H3.552ZM3.552 54.272V57.232H6.368C7.53067 57.232 8.112 56.7413 8.112 55.76C8.112 54.768 7.53067 54.272 6.368 54.272H3.552ZM15.8923 50.544C17.2896 50.544 18.3616 50.992 19.1083 51.888C19.7589 52.656 20.0843 53.68 20.0843 54.96C20.0843 56.432 19.6629 57.5626 18.8203 58.352C18.0843 59.0346 17.1083 59.376 15.8923 59.376C14.4949 59.376 13.4229 58.9333 12.6763 58.048C12.0256 57.2693 11.7003 56.24 11.7003 54.96C11.7003 53.4986 12.1216 52.3733 12.9643 51.584C13.7003 50.8906 14.6763 50.544 15.8923 50.544ZM15.8923 52.32C15.2949 52.32 14.8149 52.5653 14.4523 53.056C14.0896 53.536 13.9083 54.1706 13.9083 54.96C13.9083 55.8133 14.1109 56.4853 14.5163 56.976C14.8789 57.392 15.3376 57.6 15.8923 57.6C16.4896 57.6 16.9696 57.36 17.3323 56.88C17.7056 56.3893 17.8923 55.7493 17.8923 54.96C17.8923 54.1173 17.6843 53.4506 17.2683 52.96C16.9056 52.5333 16.4469 52.32 15.8923 52.32ZM25.4548 50.544C26.8521 50.544 27.9241 50.992 28.6708 51.888C29.3214 52.656 29.6468 53.68 29.6468 54.96C29.6468 56.432 29.2254 57.5626 28.3828 58.352C27.6468 59.0346 26.6708 59.376 25.4548 59.376C24.0574 59.376 22.9854 58.9333 22.2388 58.048C21.5881 57.2693 21.2628 56.24 21.2628 54.96C21.2628 53.4986 21.6841 52.3733 22.5268 51.584C23.2628 50.8906 24.2388 50.544 25.4548 50.544ZM25.4548 52.32C24.8574 52.32 24.3774 52.5653 24.0148 53.056C23.6521 53.536 23.4708 54.1706 23.4708 54.96C23.4708 55.8133 23.6734 56.4853 24.0788 56.976C24.4414 57.392 24.9001 57.6 25.4548 57.6C26.0521 57.6 26.5321 57.36 26.8948 56.88C27.2681 56.3893 27.4548 55.7493 27.4548 54.96C27.4548 54.1173 27.2468 53.4506 26.8308 52.96C26.4681 52.5333 26.0094 52.32 25.4548 52.32ZM33.4813 54.016L36.2493 50.72H38.7613L35.8653 53.92L38.9533 59.2H36.3773L34.3453 55.456L33.4813 56.416V59.2H31.2733V47.744H33.4813V54.016ZM42.3101 50.72V59.2H40.1021V50.72H42.3101ZM41.1901 47.808C41.4781 47.808 41.7181 47.9093 41.9101 48.112C42.1128 48.3146 42.2141 48.56 42.2141 48.848C42.2141 49.136 42.1128 49.3813 41.9101 49.584C41.7181 49.776 41.4781 49.872 41.1901 49.872C40.9021 49.872 40.6568 49.776 40.4541 49.584C40.2515 49.3813 40.1501 49.136 40.1501 48.848C40.1501 48.56 40.2515 48.3146 40.4541 48.112C40.6568 47.9093 40.9021 47.808 41.1901 47.808ZM44.4451 50.72H46.6531V51.92C47.2505 51.0026 48.0931 50.544 49.1811 50.544C50.1518 50.544 50.8878 50.832 51.3891 51.408C51.8158 51.92 52.0291 52.6133 52.0291 53.488V59.2H49.8371V53.936C49.8371 52.9226 49.3625 52.416 48.4131 52.416C47.8798 52.416 47.4531 52.5706 47.1331 52.88C46.8131 53.1786 46.6531 53.5786 46.6531 54.08V59.2H44.4451V50.72ZM59.4305 50.72H61.5265V59.12C61.5265 60.432 61.1158 61.3706 60.2945 61.936C59.6012 62.3946 58.6518 62.624 57.4465 62.624C56.1878 62.624 55.2278 62.352 54.5665 61.808C54.0225 61.3706 53.7398 60.8426 53.7185 60.224H55.9905C56.1718 60.8853 56.6945 61.216 57.5585 61.216C58.1025 61.216 58.5612 61.0453 58.9345 60.704C59.2652 60.4053 59.4305 59.9413 59.4305 59.312V58.048C59.0252 58.5493 58.6465 58.896 58.2945 59.088C57.9425 59.28 57.5158 59.376 57.0145 59.376C55.9158 59.376 55.0465 58.928 54.4065 58.032C53.8412 57.264 53.5585 56.288 53.5585 55.104C53.5585 53.7066 53.9372 52.5653 54.6945 51.68C55.3558 50.9226 56.1558 50.544 57.0945 50.544C58.0118 50.544 58.7905 50.9866 59.4305 51.872V50.72ZM57.5425 52.384C57.0092 52.384 56.5772 52.6293 56.2465 53.12C55.9265 53.6106 55.7665 54.2506 55.7665 55.04C55.7665 55.7973 55.9265 56.4053 56.2465 56.864C56.5772 57.3226 57.0092 57.552 57.5425 57.552C58.0972 57.552 58.5558 57.3173 58.9185 56.848C59.2598 56.4106 59.4305 55.8026 59.4305 55.024C59.4305 54.1813 59.2332 53.5146 58.8385 53.024C58.4972 52.5973 58.0652 52.384 57.5425 52.384Z" fill="#6A4AAD"/>
<path d="M166.512 54.192V59.2H165.376V47.744H169.76C170.955 47.744 171.84 47.9946 172.416 48.496C173.045 49.04 173.36 49.8666 173.36 50.976C173.36 52.0853 173.045 52.9066 172.416 53.44C171.829 53.9413 170.944 54.192 169.76 54.192H166.512ZM166.512 53.232H169.28C170.315 53.232 171.056 53.0506 171.504 52.688C171.973 52.3146 172.208 51.744 172.208 50.976C172.208 50.208 171.973 49.6373 171.504 49.264C171.056 48.9013 170.315 48.72 169.28 48.72H166.512V53.232ZM176.146 53.424H175.058C175.101 51.5893 176.205 50.672 178.37 50.672C180.407 50.672 181.426 51.504 181.426 53.168V57.824C181.426 58.2293 181.559 58.432 181.826 58.432C181.933 58.432 182.109 58.3626 182.354 58.224V59.12C182.023 59.2373 181.746 59.296 181.522 59.296C180.775 59.296 180.402 58.9173 180.402 58.16V57.968C179.762 58.9386 178.759 59.424 177.394 59.424C176.487 59.424 175.789 59.184 175.298 58.704C174.871 58.288 174.658 57.7333 174.658 57.04C174.658 56.2826 174.909 55.6853 175.41 55.248C175.794 54.9173 176.413 54.688 177.266 54.56L180.354 54.064C180.365 53.9893 180.37 53.9146 180.37 53.84C180.37 52.944 180.226 52.3466 179.938 52.048C179.661 51.7386 179.122 51.584 178.322 51.584C177.597 51.584 177.058 51.7333 176.706 52.032C176.365 52.32 176.178 52.784 176.146 53.424ZM180.402 54.88L177.442 55.424C176.311 55.616 175.746 56.144 175.746 57.008C175.746 57.488 175.911 57.872 176.242 58.16C176.573 58.4373 177.015 58.576 177.57 58.576C178.637 58.576 179.442 58.176 179.986 57.376C180.263 56.9706 180.402 56.4586 180.402 55.84V54.88ZM182.846 50.896H183.966L185.918 56.08C186.206 56.8266 186.414 57.488 186.542 58.064C186.649 57.552 186.868 56.88 187.198 56.048L189.118 50.896H190.206L186.542 60.288C186.286 60.9493 185.993 61.408 185.662 61.664C185.342 61.9306 184.916 62.064 184.382 62.064C183.977 62.064 183.636 62.016 183.358 61.92L183.614 60.992C183.849 61.0986 184.1 61.152 184.366 61.152C184.868 61.152 185.262 60.7946 185.55 60.08L185.998 58.976L182.846 50.896ZM191.592 50.896H192.616V51.952C193.16 51.0986 193.971 50.672 195.048 50.672C196.275 50.672 197.075 51.168 197.448 52.16C198.013 51.168 198.893 50.672 200.088 50.672C200.973 50.672 201.661 50.9386 202.152 51.472C202.525 51.888 202.712 52.5653 202.712 53.504V59.2H201.688V53.504C201.688 52.8853 201.56 52.4266 201.304 52.128C200.984 51.7653 200.515 51.584 199.896 51.584C199.096 51.584 198.499 51.888 198.104 52.496C197.827 52.9226 197.688 53.552 197.688 54.384V59.2H196.664V53.504C196.664 52.8853 196.552 52.4373 196.328 52.16C196.019 51.776 195.56 51.584 194.952 51.584C194.237 51.584 193.667 51.8133 193.24 52.272C192.824 52.72 192.616 53.328 192.616 54.096V59.2H191.592V50.896ZM212.001 55.216H205.793C205.825 56.3253 206.113 57.168 206.657 57.744C207.126 58.256 207.745 58.512 208.513 58.512C209.718 58.512 210.534 57.872 210.961 56.592H212.001C211.414 58.48 210.241 59.424 208.481 59.424C207.254 59.424 206.305 58.9866 205.633 58.112C205.046 57.3333 204.753 56.3253 204.753 55.088C204.753 53.6693 205.137 52.5493 205.905 51.728C206.577 51.024 207.43 50.672 208.465 50.672C209.627 50.672 210.529 51.0933 211.169 51.936C211.734 52.672 212.017 53.6373 212.017 54.832C212.017 54.9066 212.011 55.0346 212.001 55.216ZM210.945 54.384C210.902 53.5093 210.662 52.8266 210.225 52.336C209.787 51.8346 209.206 51.584 208.481 51.584C207.755 51.584 207.163 51.8293 206.705 52.32C206.246 52.8 205.958 53.488 205.841 54.384H210.945ZM214.061 50.896H215.085V52.08C215.725 51.1413 216.589 50.672 217.677 50.672C218.637 50.672 219.362 50.96 219.853 51.536C220.226 51.9733 220.413 52.64 220.413 53.536V59.2H219.389V53.76C219.389 52.992 219.256 52.4586 218.989 52.16C218.669 51.776 218.189 51.584 217.549 51.584C216.834 51.584 216.237 51.8293 215.757 52.32C215.309 52.768 215.085 53.4346 215.085 54.32V59.2H214.061V50.896ZM225.8 50.896V51.728H224.264V57.584C224.264 57.8613 224.307 58.0533 224.392 58.16C224.488 58.256 224.654 58.304 224.888 58.304C225.155 58.304 225.448 58.2506 225.768 58.144L225.944 59.104C225.368 59.2426 224.899 59.312 224.536 59.312C224.035 59.312 223.683 59.1893 223.48 58.944C223.278 58.6986 223.176 58.2773 223.176 57.68V51.728H221.992V50.896H223.176V49.184L224.264 48.48V50.896H225.8Z" fill="black"/>
<path d="M324.64 50.992H323.44C323.248 50.2026 322.848 49.584 322.24 49.136C321.632 48.688 320.896 48.464 320.032 48.464C318.709 48.464 317.691 48.976 316.976 50C316.347 50.896 316.032 52.0693 316.032 53.52C316.032 55.1413 316.437 56.4053 317.248 57.312C317.952 58.0906 318.869 58.48 320 58.48C321.045 58.48 321.904 58.1386 322.576 57.456C323.163 56.8586 323.525 56.0693 323.664 55.088H324.784C324.645 56.0693 324.352 56.8746 323.904 57.504C323.008 58.8053 321.696 59.456 319.968 59.456C318.304 59.456 317.013 58.848 316.096 57.632C315.296 56.576 314.896 55.1893 314.896 53.472C314.896 51.4986 315.424 49.9733 316.48 48.896C317.387 47.9573 318.587 47.488 320.08 47.488C321.339 47.488 322.384 47.84 323.216 48.544C323.941 49.1626 324.416 49.9786 324.64 50.992ZM330.046 50.672C331.272 50.672 332.238 51.1253 332.942 52.032C333.56 52.8213 333.87 53.8293 333.87 55.056C333.87 56.4533 333.475 57.5573 332.686 58.368C331.992 59.072 331.112 59.424 330.046 59.424C328.819 59.424 327.854 58.9706 327.15 58.064C326.531 57.2746 326.222 56.272 326.222 55.056C326.222 53.648 326.616 52.5386 327.406 51.728C328.099 51.024 328.979 50.672 330.046 50.672ZM330.046 51.584C329.16 51.584 328.467 51.9413 327.966 52.656C327.528 53.2746 327.31 54.0746 327.31 55.056C327.31 56.176 327.592 57.056 328.158 57.696C328.638 58.24 329.267 58.512 330.046 58.512C330.931 58.512 331.624 58.1546 332.126 57.44C332.563 56.8213 332.782 56.0266 332.782 55.056C332.782 53.936 332.499 53.056 331.934 52.416C331.443 51.8613 330.814 51.584 330.046 51.584ZM335.936 50.896H336.96V52.08C337.6 51.1413 338.464 50.672 339.552 50.672C340.512 50.672 341.237 50.96 341.728 51.536C342.101 51.9733 342.288 52.64 342.288 53.536V59.2H341.264V53.76C341.264 52.992 341.131 52.4586 340.864 52.16C340.544 51.776 340.064 51.584 339.424 51.584C338.709 51.584 338.112 51.8293 337.632 52.32C337.184 52.768 336.96 53.4346 336.96 54.32V59.2H335.936V50.896ZM347.483 50.896V51.728H346.107V59.2H345.019V51.728H343.819V50.896H345.019V49.504C345.019 48.832 345.163 48.3466 345.451 48.048C345.75 47.7493 346.23 47.6 346.891 47.6C347.094 47.6 347.291 47.616 347.483 47.648V48.56C347.345 48.5386 347.206 48.528 347.067 48.528C346.683 48.528 346.427 48.6026 346.299 48.752C346.171 48.8906 346.107 49.1733 346.107 49.6V50.896H347.483ZM350.101 50.896V59.2H349.061V50.896H350.101ZM349.589 47.952C349.749 47.952 349.887 48.0106 350.005 48.128C350.122 48.2453 350.181 48.3893 350.181 48.56C350.181 48.72 350.122 48.864 350.005 48.992C349.887 49.1093 349.749 49.168 349.589 49.168C349.418 49.168 349.274 49.1093 349.157 48.992C349.039 48.864 348.981 48.72 348.981 48.56C348.981 48.3893 349.039 48.2453 349.157 48.128C349.274 48.0106 349.418 47.952 349.589 47.952ZM352.623 50.896H353.647L353.599 52.384C354.015 51.3173 354.805 50.784 355.967 50.784C356.053 50.784 356.191 50.7893 356.383 50.8L356.367 51.856C356.207 51.824 356.095 51.808 356.031 51.808C355.231 51.8186 354.613 52.128 354.175 52.736C353.823 53.2266 353.647 53.9253 353.647 54.832V59.2H352.623V50.896ZM357.983 50.896H359.007V51.952C359.551 51.0986 360.361 50.672 361.439 50.672C362.665 50.672 363.465 51.168 363.839 52.16C364.404 51.168 365.284 50.672 366.479 50.672C367.364 50.672 368.052 50.9386 368.543 51.472C368.916 51.888 369.103 52.5653 369.103 53.504V59.2H368.079V53.504C368.079 52.8853 367.951 52.4266 367.695 52.128C367.375 51.7653 366.905 51.584 366.287 51.584C365.487 51.584 364.889 51.888 364.495 52.496C364.217 52.9226 364.079 53.552 364.079 54.384V59.2H363.055V53.504C363.055 52.8853 362.943 52.4373 362.719 52.16C362.409 51.776 361.951 51.584 361.343 51.584C360.628 51.584 360.057 51.8133 359.631 52.272C359.215 52.72 359.007 53.328 359.007 54.096V59.2H357.983V50.896ZM372.583 53.424H371.495C371.538 51.5893 372.642 50.672 374.807 50.672C376.845 50.672 377.863 51.504 377.863 53.168V57.824C377.863 58.2293 377.997 58.432 378.263 58.432C378.37 58.432 378.546 58.3626 378.791 58.224V59.12C378.461 59.2373 378.183 59.296 377.959 59.296C377.213 59.296 376.839 58.9173 376.839 58.16V57.968C376.199 58.9386 375.197 59.424 373.831 59.424C372.925 59.424 372.226 59.184 371.735 58.704C371.309 58.288 371.095 57.7333 371.095 57.04C371.095 56.2826 371.346 55.6853 371.847 55.248C372.231 54.9173 372.85 54.688 373.703 54.56L376.791 54.064C376.802 53.9893 376.807 53.9146 376.807 53.84C376.807 52.944 376.663 52.3466 376.375 52.048C376.098 51.7386 375.559 51.584 374.759 51.584C374.034 51.584 373.495 51.7333 373.143 52.032C372.802 52.32 372.615 52.784 372.583 53.424ZM376.839 54.88L373.879 55.424C372.749 55.616 372.183 56.144 372.183 57.008C372.183 57.488 372.349 57.872 372.679 58.16C373.01 58.4373 373.453 58.576 374.007 58.576C375.074 58.576 375.879 58.176 376.423 57.376C376.701 56.9706 376.839 56.4586 376.839 55.84V54.88ZM383.316 50.896V51.728H381.78V57.584C381.78 57.8613 381.823 58.0533 381.908 58.16C382.004 58.256 382.169 58.304 382.404 58.304C382.671 58.304 382.964 58.2506 383.284 58.144L383.46 59.104C382.884 59.2426 382.415 59.312 382.052 59.312C381.551 59.312 381.199 59.1893 380.996 58.944C380.793 58.6986 380.692 58.2773 380.692 57.68V51.728H379.508V50.896H380.692V49.184L381.78 48.48V50.896H383.316ZM386.085 50.896V59.2H385.045V50.896H386.085ZM385.573 47.952C385.733 47.952 385.872 48.0106 385.989 48.128C386.106 48.2453 386.165 48.3893 386.165 48.56C386.165 48.72 386.106 48.864 385.989 48.992C385.872 49.1093 385.733 49.168 385.573 49.168C385.402 49.168 385.258 49.1093 385.141 48.992C385.024 48.864 384.965 48.72 384.965 48.56C384.965 48.3893 385.024 48.2453 385.141 48.128C385.258 48.0106 385.402 47.952 385.573 47.952ZM391.952 50.672C393.178 50.672 394.144 51.1253 394.848 52.032C395.466 52.8213 395.776 53.8293 395.776 55.056C395.776 56.4533 395.381 57.5573 394.592 58.368C393.898 59.072 393.018 59.424 391.952 59.424C390.725 59.424 389.76 58.9706 389.056 58.064C388.437 57.2746 388.128 56.272 388.128 55.056C388.128 53.648 388.522 52.5386 389.312 51.728C390.005 51.024 390.885 50.672 391.952 50.672ZM391.952 51.584C391.066 51.584 390.373 51.9413 389.872 52.656C389.434 53.2746 389.216 54.0746 389.216 55.056C389.216 56.176 389.498 57.056 390.064 57.696C390.544 58.24 391.173 58.512 391.952 58.512C392.837 58.512 393.53 58.1546 394.032 57.44C394.469 56.8213 394.688 56.0266 394.688 55.056C394.688 53.936 394.405 53.056 393.84 52.416C393.349 51.8613 392.72 51.584 391.952 51.584ZM397.842 50.896H398.866V52.08C399.506 51.1413 400.37 50.672 401.458 50.672C402.418 50.672 403.143 50.96 403.634 51.536C404.007 51.9733 404.194 52.64 404.194 53.536V59.2H403.17V53.76C403.17 52.992 403.037 52.4586 402.77 52.16C402.45 51.776 401.97 51.584 401.33 51.584C400.615 51.584 400.018 51.8293 399.538 52.32C399.09 52.768 398.866 53.4346 398.866 54.32V59.2H397.842V50.896Z" fill="black"/>
</svg>
